<svg version="1.1" xmlns="http://www.w3.org/2000/svg" viewBox="0 0 819.069182656028 895.6839488636366" width="819.069182656028" height="895.6839488636366">
  <!-- svg-source:excalidraw -->
  
  <defs>
    <style class="style-fonts">
      @font-face {
        font-family: "Virgil";
        src: url("https://excalidraw.com/Virgil.woff2");
      }
      @font-face {
        font-family: "Cascadia";
        src: url("https://excalidraw.com/Cascadia.woff2");
      }
    </style>
    
  </defs>
  <rect x="0" y="0" width="819.069182656028" height="895.6839488636366" fill="#ffffff"></rect><g stroke-linecap="round" transform="translate(36.766878301447036 10) rotate(0 259.49999999999994 92)"><path d="M32 0 M32 0 C209.09 -0.81, 385.08 -0.81, 487 0 M32 0 C211.03 -1.1, 388.95 -0.85, 487 0 M487 0 C507.34 -0.3, 518.22 12.44, 519 32 M487 0 C507.06 -1.21, 519.81 11.19, 519 32 M519 32 C517.66 62.6, 519.65 93.48, 519 152 M519 32 C519.13 66.35, 520.42 99.41, 519 152 M519 152 C518.46 174.44, 508.07 183.83, 487 184 M519 152 C519.2 174.69, 508.61 182.46, 487 184 M487 184 C393.68 184.13, 298.76 182.83, 32 184 M487 184 C385.11 185.31, 282.47 185.25, 32 184 M32 184 C12.2 184.08, -0.84 174.34, 0 152 M32 184 C11.13 182.85, 1.33 171.27, 0 152 M0 152 C-2.08 121.69, 0.34 91.38, 0 32 M0 152 C0.38 125.84, 0.14 100.81, 0 32 M0 32 C1.34 9.04, 10.02 1.85, 32 0 M0 32 C-1.06 12.83, 11.18 -0.4, 32 0" stroke="#1e1e1e" stroke-width="1" fill="none"></path></g><g transform="translate(205.09890955144704 15) rotate(0 91.16796874999994 17.5)"><text x="91.16796875" y="0" font-family="Virgil, Segoe UI Emoji" font-size="28px" fill="#1e1e1e" text-anchor="middle" style="white-space: pre;" direction="ltr" dominant-baseline="text-before-edge">Access Query</text></g><g transform="translate(107.52958679199241 77.30326704545462) rotate(0 31.36797332763672 10)"><text x="31.36797332763672" y="0" font-family="Virgil, Segoe UI Emoji" font-size="16px" fill="#1e1e1e" text-anchor="middle" style="white-space: pre;" direction="ltr" dominant-baseline="text-before-edge">Principal</text></g><g stroke-linecap="round" transform="translate(72.89756011962913 107.06605113636363) rotate(0 66 28)"><path d="M1.86 5.59 C1.86 5.59, 1.86 5.59, 1.86 5.59 M1.86 5.59 C1.86 5.59, 1.86 5.59, 1.86 5.59 M1.6 11.99 C2.38 9.6, 5.08 9, 8.16 4.44 M1.6 11.99 C2.99 10.19, 4.53 9.06, 8.16 4.44 M1.34 18.39 C6.19 12.14, 12.48 6.86, 15.77 1.78 M1.34 18.39 C5.15 12.87, 10.99 7.05, 15.77 1.78 M1.73 24.03 C8.54 16.37, 13.02 7.87, 21.41 1.39 M1.73 24.03 C5.91 18.3, 9.26 14, 21.41 1.39 M1.47 30.43 C10.79 20.46, 22.2 9.27, 26.4 1.75 M1.47 30.43 C7.89 21.79, 15.5 13.8, 26.4 1.75 M1.87 36.07 C11.72 26.03, 22.05 11.98, 31.39 2.11 M1.87 36.07 C9.67 27.77, 16.86 19.09, 31.39 2.11 M1.6 42.47 C15.94 27.26, 30.02 12.06, 37.03 1.72 M1.6 42.47 C9.8 33.33, 15.79 25.12, 37.03 1.72 M2.65 47.36 C12.04 38.09, 22.95 26.62, 42.02 2.08 M2.65 47.36 C15.18 33.13, 26.45 18.27, 42.02 2.08 M3.71 52.25 C17.54 35.98, 27.78 20.95, 47.66 1.68 M3.71 52.25 C19.02 33.06, 34.33 15.78, 47.66 1.68 M6.72 54.87 C21.62 40.2, 33.13 22.2, 52.65 2.04 M6.72 54.87 C19.09 41.44, 31.47 26.08, 52.65 2.04 M10.4 56.74 C26.87 38.42, 41.46 21.3, 58.29 1.65 M10.4 56.74 C21.92 44.09, 31.46 31.47, 58.29 1.65 M15.39 57.1 C32.77 33.88, 50.78 12.41, 63.28 2.01 M15.39 57.1 C28.95 43.52, 40.24 29.16, 63.28 2.01 M20.37 57.46 C35.87 38.51, 52.18 17.89, 68.27 2.37 M20.37 57.46 C31.82 45.5, 42.74 31.37, 68.27 2.37 M26.02 57.07 C35.67 45.9, 46 35.99, 73.91 1.97 M26.02 57.07 C37.46 43.94, 49.71 28.99, 73.91 1.97 M31 57.43 C50.26 37.13, 68.57 14.13, 78.9 2.33 M31 57.43 C50.36 36.55, 69.28 14.31, 78.9 2.33 M36.65 57.03 C52.99 38.13, 70.73 18.23, 84.54 1.94 M36.65 57.03 C51.83 39.66, 68.94 19.37, 84.54 1.94 M41.63 57.39 C54.67 42.56, 69.51 26.5, 89.53 2.3 M41.63 57.39 C55.41 42.12, 69.18 25.28, 89.53 2.3 M47.28 57 C62.93 39.18, 79.71 20.79, 95.17 1.9 M47.28 57 C57.4 45.11, 67.57 31.67, 95.17 1.9 M52.26 57.36 C62.24 47.23, 70.02 33.99, 100.16 2.26 M52.26 57.36 C63.54 44.34, 72.94 33.35, 100.16 2.26 M57.25 57.72 C71.23 38.29, 86.74 24.77, 105.14 2.62 M57.25 57.72 C70.73 41.54, 85.38 24.39, 105.14 2.62 M62.89 57.32 C82.93 35.77, 99.93 17.13, 110.79 2.23 M62.89 57.32 C78.56 40.76, 92.09 22.89, 110.79 2.23 M67.88 57.68 C80.75 41.62, 98.45 26.04, 115.77 2.59 M67.88 57.68 C79.06 45.42, 90.62 32.66, 115.77 2.59 M73.52 57.29 C89.56 37.03, 103.69 22.08, 121.42 2.19 M73.52 57.29 C84.9 45.13, 94.93 31.44, 121.42 2.19 M78.51 57.65 C93.15 38.85, 109.49 22.88, 126.4 2.55 M78.51 57.65 C94.43 38.54, 111.21 19.35, 126.4 2.55 M83.5 58.01 C96.57 42.98, 109.82 30.83, 130.08 4.42 M83.5 58.01 C101.82 36.68, 119.77 15.39, 130.08 4.42 M89.14 57.61 C99.82 45.52, 112.05 31.94, 131.78 8.56 M89.14 57.61 C99.23 46.47, 108.16 35.78, 131.78 8.56 M94.13 57.97 C106.11 46.47, 114.15 35.6, 133.49 12.69 M94.13 57.97 C109.76 40.11, 125.85 23.09, 133.49 12.69 M99.77 57.58 C112.36 42.82, 125.91 26.76, 133.89 18.33 M99.77 57.58 C110.6 44.66, 120.02 34.11, 133.89 18.33 M104.76 57.94 C113.98 49.74, 123.7 37.08, 133.62 24.73 M104.76 57.94 C110.72 50.43, 116.94 44.61, 133.62 24.73 M110.4 57.54 C120.62 48.22, 126.51 38.2, 133.36 31.13 M110.4 57.54 C117.29 49.37, 124.53 40.69, 133.36 31.13 M115.39 57.9 C121.28 51.4, 122.92 48.55, 133.1 37.53 M115.39 57.9 C121.74 51.58, 126.9 43.77, 133.1 37.53 M120.38 58.27 C124.46 51.87, 130.18 48.42, 133.5 43.17 M120.38 58.27 C124.76 55.11, 128.51 49.54, 133.5 43.17" stroke="#a5d8ff" stroke-width="0.5" fill="none"></path><path d="M14 0 M14 0 C37.46 1.2, 60.14 1.24, 118 0 M14 0 C46.88 -0.07, 79.07 -0.05, 118 0 M118 0 C125.88 -1.76, 133.6 3.2, 132 14 M118 0 C128.39 1.94, 132.21 6.62, 132 14 M132 14 C131.65 20.94, 133.3 28.69, 132 42 M132 14 C131.7 25.39, 132.79 36.72, 132 42 M132 42 C130.36 51.39, 126.39 57.95, 118 56 M132 42 C130.92 50.35, 127.7 56.46, 118 56 M118 56 C88.05 54.93, 57.25 54.72, 14 56 M118 56 C94.54 55.96, 69.82 56.27, 14 56 M14 56 C5.43 56.99, 0.5 52.99, 0 42 M14 56 C6.78 56.57, 0.72 50.66, 0 42 M0 42 C-0.27 34.92, 0.05 26.89, 0 14 M0 42 C0.45 32.01, 0.84 22.97, 0 14 M0 14 C-1.43 4, 6.66 1.28, 14 0 M0 14 C0.5 5.59, 3.86 -0.76, 14 0" stroke="#1e1e1e" stroke-width="1" fill="none"></path></g><g transform="translate(101.51358795166038 125.06605113636363) rotate(0 37.38397216796875 10)"><text x="37.38397216796875" y="0" font-family="Virgil, Segoe UI Emoji" font-size="16px" fill="#1e1e1e" text-anchor="middle" style="white-space: pre;" direction="ltr" dominant-baseline="text-before-edge">user: john</text></g><g transform="translate(416.3162488070416 75.97514204545462) rotate(0 29.007980346679688 10)"><text x="29.007980346679688" y="0" font-family="Virgil, Segoe UI Emoji" font-size="16px" fill="#1e1e1e" text-anchor="middle" style="white-space: pre;" direction="ltr" dominant-baseline="text-before-edge">Subject</text></g><g stroke-linecap="round" transform="translate(379.32422915372126 105.73792613636363) rotate(0 66 28)"><path d="M1.86 5.59 C1.86 5.59, 1.86 5.59, 1.86 5.59 M1.86 5.59 C1.86 5.59, 1.86 5.59, 1.86 5.59 M1.6 11.99 C3.76 9.8, 3.77 7.9, 8.16 4.44 M1.6 11.99 C2.84 10.27, 4.4 8.59, 8.16 4.44 M1.34 18.39 C6.91 12.5, 10.44 9.15, 15.77 1.78 M1.34 18.39 C6.81 13.54, 9.98 7.93, 15.77 1.78 M1.73 24.03 C9.12 17.09, 13.18 12.13, 21.41 1.39 M1.73 24.03 C9.07 17.1, 16.14 7.66, 21.41 1.39 M1.47 30.43 C12.42 20.73, 21.71 7.43, 26.4 1.75 M1.47 30.43 C6.01 23.12, 11.76 17.68, 26.4 1.75 M1.87 36.07 C12.62 24.96, 23.84 14.78, 31.39 2.11 M1.87 36.07 C10.81 24, 21.66 14.34, 31.39 2.11 M1.6 42.47 C14.66 26.03, 25.13 12.2, 37.03 1.72 M1.6 42.47 C10.6 33.79, 18.39 23.67, 37.03 1.72 M2.65 47.36 C11.63 37.63, 19.92 26.95, 42.02 2.08 M2.65 47.36 C11.5 38.19, 20.4 29.02, 42.02 2.08 M3.71 52.25 C15.62 40.73, 26.79 26.62, 47.66 1.68 M3.71 52.25 C18.46 35.55, 31.85 18.43, 47.66 1.68 M6.72 54.87 C20.42 38.51, 38.95 21.02, 52.65 2.04 M6.72 54.87 C16.42 43.9, 25.26 33.98, 52.65 2.04 M10.4 56.74 C25.03 38.54, 41.93 19.49, 58.29 1.65 M10.4 56.74 C25.4 39.33, 42.1 20.71, 58.29 1.65 M15.39 57.1 C30.85 38.32, 46.8 18.57, 63.28 2.01 M15.39 57.1 C31.97 38.99, 46.17 22.09, 63.28 2.01 M20.37 57.46 C37.87 35.45, 58.77 13.52, 68.27 2.37 M20.37 57.46 C37.41 39.16, 52.95 18.78, 68.27 2.37 M26.02 57.07 C45.22 36.48, 61.64 16.46, 73.91 1.97 M26.02 57.07 C41.77 39.71, 57.6 20.95, 73.91 1.97 M31 57.43 C43.12 43.52, 55.94 30.7, 78.9 2.33 M31 57.43 C49.07 38.28, 66.53 16.9, 78.9 2.33 M36.65 57.03 C55.23 34.57, 74.7 15.58, 84.54 1.94 M36.65 57.03 C54.38 35.01, 72.28 14.86, 84.54 1.94 M41.63 57.39 C51.89 44.53, 61.57 36.17, 89.53 2.3 M41.63 57.39 C55.43 41.55, 69.57 25.85, 89.53 2.3 M47.28 57 C59.47 42.55, 75.8 25.88, 95.17 1.9 M47.28 57 C58.69 42.3, 71.9 28.97, 95.17 1.9 M52.26 57.36 C60.64 45.31, 71.1 32.56, 100.16 2.26 M52.26 57.36 C65.31 42.25, 79.21 26.14, 100.16 2.26 M57.25 57.72 C70.83 41.01, 88.56 21.78, 105.14 2.62 M57.25 57.72 C68.83 42.05, 82.45 28.25, 105.14 2.62 M62.89 57.32 C78.73 40.65, 94.03 24.86, 110.79 2.23 M62.89 57.32 C81.08 35.99, 99.58 13.98, 110.79 2.23 M67.88 57.68 C82.58 38.08, 102.18 19.2, 115.77 2.59 M67.88 57.68 C84.78 38.68, 100.78 21.56, 115.77 2.59 M73.52 57.29 C89.75 38.22, 109.65 16.29, 121.42 2.19 M73.52 57.29 C89.49 38.61, 105.1 20.19, 121.42 2.19 M78.51 57.65 C96.08 40.12, 111.88 21.14, 126.4 2.55 M78.51 57.65 C96.61 38.27, 114.15 17.24, 126.4 2.55 M83.5 58.01 C99.31 37.76, 115.95 21.14, 130.08 4.42 M83.5 58.01 C101.74 38.61, 118.34 17.17, 130.08 4.42 M89.14 57.61 C100.74 44.29, 111.77 31.01, 131.78 8.56 M89.14 57.61 C100.74 43.97, 111 32.2, 131.78 8.56 M94.13 57.97 C106.08 45.47, 116.42 31.24, 133.49 12.69 M94.13 57.97 C109.61 41.9, 125.02 24.55, 133.49 12.69 M99.77 57.58 C108.65 46.83, 122.41 34.15, 133.89 18.33 M99.77 57.58 C109.59 47.33, 118.86 35.62, 133.89 18.33 M104.76 57.94 C112.69 50.46, 121.75 41.41, 133.62 24.73 M104.76 57.94 C115 45.47, 125.29 33.7, 133.62 24.73 M110.4 57.54 C118.34 50.46, 125.95 40.74, 133.36 31.13 M110.4 57.54 C116.53 49.88, 123.55 42.29, 133.36 31.13 M115.39 57.9 C119.07 53.6, 123.68 47.37, 133.1 37.53 M115.39 57.9 C122.29 49.41, 129.17 43.3, 133.1 37.53 M120.38 58.27 C125.13 54.78, 130.55 47.65, 133.5 43.17 M120.38 58.27 C123.27 53.78, 128.76 48.81, 133.5 43.17" stroke="#a5d8ff" stroke-width="0.5" fill="none"></path><path d="M14 0 M14 0 C39.6 -1.03, 63.51 1.96, 118 0 M14 0 C54.31 0.21, 95.89 -0.12, 118 0 M118 0 C125.39 -1.68, 131.88 4.18, 132 14 M118 0 C125.25 0, 130.69 6.13, 132 14 M132 14 C133.24 26.32, 130.3 36.5, 132 42 M132 14 C132.43 24.14, 131.42 35.64, 132 42 M132 42 C133.21 50.87, 128.37 55.16, 118 56 M132 42 C131.32 52.35, 128.19 55.55, 118 56 M118 56 C93.14 57.64, 69.3 55.65, 14 56 M118 56 C80.88 55.26, 44.28 55.68, 14 56 M14 56 C5.11 55.3, -0.33 51.51, 0 42 M14 56 C3.73 55.52, 0.35 53.03, 0 42 M0 42 C-1.66 32.3, 1.28 22.86, 0 14 M0 42 C0.6 33.59, -0.31 26.02, 0 14 M0 14 C1.14 5.41, 4.88 -0.94, 14 0 M0 14 C-1.02 6.81, 2.89 2.03, 14 0" stroke="#1e1e1e" stroke-width="1" fill="none"></path></g><g transform="translate(407.9402569857525 123.73792613636363) rotate(0 37.38397216796875 10)"><text x="37.38397216796875" y="0" font-family="Virgil, Segoe UI Emoji" font-size="16px" fill="#1e1e1e" text-anchor="middle" style="white-space: pre;" direction="ltr" dominant-baseline="text-before-edge">user: john</text></g><g transform="translate(267.8805278431288 78.24786931818176) rotate(0 23.70398712158203 10)"><text x="23.70398712158203" y="0" font-family="Virgil, Segoe UI Emoji" font-size="16px" fill="#1e1e1e" text-anchor="middle" style="white-space: pre;" direction="ltr" dominant-baseline="text-before-edge">Action</text></g><g stroke-linecap="round" transform="translate(226.11089463667474 108.05504261363626) rotate(0 66.00000000000006 28)"><path d="M1.86 5.59 C1.86 5.59, 1.86 5.59, 1.86 5.59 M1.86 5.59 C1.86 5.59, 1.86 5.59, 1.86 5.59 M1.6 11.99 C2.46 9.83, 3.58 9.11, 8.16 4.44 M1.6 11.99 C2.79 10.07, 4.06 8.97, 8.16 4.44 M1.34 18.39 C6.36 13.22, 9.63 10.22, 15.77 1.78 M1.34 18.39 C4.1 15.02, 7.31 11.35, 15.77 1.78 M1.73 24.03 C9.91 18.19, 13.75 9.37, 21.41 1.39 M1.73 24.03 C7.19 18.48, 13.92 11.25, 21.41 1.39 M1.47 30.43 C9.24 18.87, 18.66 12.74, 26.4 1.75 M1.47 30.43 C9.09 20.99, 17.05 13.36, 26.4 1.75 M1.87 36.07 C13.89 21.81, 26.16 9.99, 31.39 2.11 M1.87 36.07 C8.75 28.39, 15.62 20.58, 31.39 2.11 M1.6 42.47 C12.29 31.89, 18.61 22.67, 37.03 1.72 M1.6 42.47 C16.17 26.03, 29.02 10.82, 37.03 1.72 M2.65 47.36 C13.82 36.3, 23.11 22.61, 42.02 2.08 M2.65 47.36 C17.17 30.38, 32.47 11.89, 42.02 2.08 M3.71 52.25 C13.74 38.88, 24.52 26.51, 47.66 1.68 M3.71 52.25 C21.05 32.3, 37.3 13.5, 47.66 1.68 M6.72 54.87 C24.61 37.14, 41.94 16, 52.65 2.04 M6.72 54.87 C20.46 40.06, 34.57 24.68, 52.65 2.04 M10.4 56.74 C24.56 38.36, 43.46 19.8, 58.29 1.65 M10.4 56.74 C22.63 44.31, 33.17 31.43, 58.29 1.65 M15.39 57.1 C28.52 41.52, 42.87 25.08, 63.28 2.01 M15.39 57.1 C25.59 45.1, 37.49 31.79, 63.28 2.01 M20.37 57.46 C37.12 40.8, 50.87 20.73, 68.27 2.37 M20.37 57.46 C30.2 44.62, 41.52 32.97, 68.27 2.37 M26.02 57.07 C34.88 44.47, 44.4 32.24, 73.91 1.97 M26.02 57.07 C38.55 41.94, 51.28 28.27, 73.91 1.97 M31 57.43 C43.43 41.49, 57.35 27.33, 78.9 2.33 M31 57.43 C42.72 42.2, 54.91 29.16, 78.9 2.33 M36.65 57.03 C53.61 40.79, 68.15 20.37, 84.54 1.94 M36.65 57.03 C55.59 36.74, 74.55 14.92, 84.54 1.94 M41.63 57.39 C53.67 43.51, 69.52 26.46, 89.53 2.3 M41.63 57.39 C54.62 40.71, 68.06 24.82, 89.53 2.3 M47.28 57 C62.83 41.04, 80.57 19.42, 95.17 1.9 M47.28 57 C57.36 46.34, 65.96 34.83, 95.17 1.9 M52.26 57.36 C69.2 37.51, 88.83 18.35, 100.16 2.26 M52.26 57.36 C70.15 36.29, 87.66 16.59, 100.16 2.26 M57.25 57.72 C68.59 47.63, 79.62 33.42, 105.14 2.62 M57.25 57.72 C70.13 43.37, 81.05 28.69, 105.14 2.62 M62.89 57.32 C74.11 43.21, 87.16 26.24, 110.79 2.23 M62.89 57.32 C74.29 45.36, 84.09 32.86, 110.79 2.23 M67.88 57.68 C79.87 41.79, 93.82 27.64, 115.77 2.59 M67.88 57.68 C80.91 43.59, 93.08 29.26, 115.77 2.59 M73.52 57.29 C89.32 39.41, 107.19 18.24, 121.42 2.19 M73.52 57.29 C83.02 46.4, 93.61 34.37, 121.42 2.19 M78.51 57.65 C89.53 43.15, 100.91 32.11, 126.4 2.55 M78.51 57.65 C92.28 41.18, 105.47 26.59, 126.4 2.55 M83.5 58.01 C96.5 44.26, 112.46 26.15, 130.08 4.42 M83.5 58.01 C99.9 38.51, 116.63 20.44, 130.08 4.42 M89.14 57.61 C102.72 40.83, 118.27 23.73, 131.78 8.56 M89.14 57.61 C106.66 39.18, 122.72 18.84, 131.78 8.56 M94.13 57.97 C102.74 47.41, 111.96 34.63, 133.49 12.69 M94.13 57.97 C108.19 41.35, 124.85 23.96, 133.49 12.69 M99.77 57.58 C112.66 44.94, 123.42 31.69, 133.89 18.33 M99.77 57.58 C113.31 43.23, 124.9 27.34, 133.89 18.33 M104.76 57.94 C111.71 50.57, 121.29 42.26, 133.62 24.73 M104.76 57.94 C112.3 49.73, 118.26 41.05, 133.62 24.73 M110.4 57.54 C118.04 47.17, 129.95 37.04, 133.36 31.13 M110.4 57.54 C115.63 51.73, 121.94 44.79, 133.36 31.13 M115.39 57.9 C118.72 53.84, 121.44 49.6, 133.1 37.53 M115.39 57.9 C123.39 50.03, 128.34 42.96, 133.1 37.53 M120.38 58.27 C121.3 55.78, 127.73 50.85, 133.5 43.17 M120.38 58.27 C123.46 53.59, 128.65 48.92, 133.5 43.17" stroke="#a5d8ff" stroke-width="0.5" fill="none"></path><path d="M14 0 M14 0 C37.6 -2.05, 56.27 -1.53, 118 0 M14 0 C45.8 -0.05, 78.72 -0.29, 118 0 M118 0 C125.5 0.94, 132.68 4.04, 132 14 M118 0 C127.85 -1.01, 134.16 4.36, 132 14 M132 14 C133.63 18.67, 133.63 24.55, 132 42 M132 14 C131.23 20.65, 131.52 28.43, 132 42 M132 42 C131.78 52.06, 128.59 54.34, 118 56 M132 42 C131.72 51.79, 125.17 54.96, 118 56 M118 56 C91.93 54.42, 67.87 57.82, 14 56 M118 56 C92.88 57.32, 68.72 56.93, 14 56 M14 56 C4.75 54.41, 0.99 52.45, 0 42 M14 56 C3.91 54.21, -0.01 53.2, 0 42 M0 42 C1.32 37.22, -0.58 28.58, 0 14 M0 42 C-0.46 31.47, -0.61 21.05, 0 14 M0 14 C1.42 3.37, 5.28 0.6, 14 0 M0 14 C-2.1 5.2, 5.37 -1.21, 14 0" stroke="#1e1e1e" stroke-width="1" fill="none"></path></g><g transform="translate(276.9109053178271 126.05504261363626) rotate(0 15.199989318847656 10)"><text x="15.199989318847656" y="0" font-family="Virgil, Segoe UI Emoji" font-size="16px" fill="#1e1e1e" text-anchor="middle" style="white-space: pre;" direction="ltr" dominant-baseline="text-before-edge">edit</text></g><g stroke-linecap="round" transform="translate(36.42568536120302 292.43465909090935) rotate(0 98.3665304189858 84.06906960227275)"><path d="M123.75 21.25 M123.75 21.25 C139.09 36.36, 152.19 46.87, 171.98 63.75 M123.75 21.25 C138.7 36.05, 152.89 45.16, 171.98 63.75 M171.98 63.75 C194.84 88.93, 194.11 85.07, 171.98 106.25 M171.98 63.75 C201.06 86.71, 200.88 86.12, 171.98 106.25 M171.98 106.25 C158.62 120.95, 138.11 136.53, 123.75 146.89 M171.98 106.25 C154.6 119.81, 135.02 134.73, 123.75 146.89 M123.75 146.89 C100.81 169.36, 96.25 164.31, 74.25 146.89 M123.75 146.89 C95.7 164.63, 102.02 169.76, 74.25 146.89 M74.25 146.89 C59.21 138.9, 46.71 122.15, 24.75 106.25 M74.25 146.89 C63.24 137.53, 48.28 125.48, 24.75 106.25 M24.75 106.25 C2.02 82.51, 1.81 85.88, 24.75 63.75 M24.75 106.25 C-2.32 83.45, 3.73 86.13, 24.75 63.75 M24.75 63.75 C36.88 57.83, 43.55 49.31, 74.25 21.25 M24.75 63.75 C34.8 51.63, 48.89 43.54, 74.25 21.25 M74.25 21.25 C98.59 -3.97, 96.78 -3.56, 123.75 21.25 M74.25 21.25 C98.02 -0.48, 99.8 3.69, 123.75 21.25" stroke="#1e1e1e" stroke-width="1" fill="none"></path></g><g transform="translate(90.70499701844983 347.5218254709931) rotate(0 43.903953552246094 28.94736842105266)"><text x="43.903953552246094" y="0" font-family="Virgil, Segoe UI Emoji" font-size="23.157894736842106px" fill="#1e1e1e" text-anchor="middle" style="white-space: pre;" direction="ltr" dominant-baseline="text-before-edge">Access </text><text x="43.903953552246094" y="28.947368421052634" font-family="Virgil, Segoe UI Emoji" font-size="23.157894736842106px" fill="#1e1e1e" text-anchor="middle" style="white-space: pre;" direction="ltr" dominant-baseline="text-before-edge">Control</text></g><g stroke-linecap="round" transform="translate(378.00888824462845 258.9074928977275) rotate(0 94.51571377840912 165.1566938920455)"><path d="M32 0 M32 0 C75.61 1.67, 115.16 -1.92, 157.03 0 M32 0 C80.44 -1.58, 130.3 -1.64, 157.03 0 M157.03 0 C178.1 -0.72, 187.95 12.51, 189.03 32 M157.03 0 C177.87 -1.23, 190.95 11.42, 189.03 32 M189.03 32 C189.97 108.67, 188.59 183.17, 189.03 298.31 M189.03 32 C190.35 109.84, 191.42 186.46, 189.03 298.31 M189.03 298.31 C188.23 319.05, 179.2 328.6, 157.03 330.31 M189.03 298.31 C188.17 318.13, 178.44 330.42, 157.03 330.31 M157.03 330.31 C128.8 331.05, 104.74 330.36, 32 330.31 M157.03 330.31 C124.71 328.94, 92.05 329.98, 32 330.31 M32 330.31 C12.54 331.92, -0.04 317.99, 0 298.31 M32 330.31 C8.93 329.01, 0.47 317.89, 0 298.31 M0 298.31 C-2.86 206.04, -2.05 116.74, 0 32 M0 298.31 C1.32 219.52, 1.92 142.33, 0 32 M0 32 C0.95 10.8, 11.75 -0.81, 32 0 M0 32 C1.86 12.66, 8.81 1.41, 32 0" stroke="#1e1e1e" stroke-width="1" fill="none"></path></g><g stroke-linecap="round" transform="translate(408.7386467673555 289.877840909091) rotate(0 65.63609730113637 35.96413352272731)"><path d="M4.79 4.16 C4.79 4.16, 4.79 4.16, 4.79 4.16 M4.79 4.16 C4.79 4.16, 4.79 4.16, 4.79 4.16 M1.24 14.33 C3.24 9.66, 8.71 6.85, 11.74 2.26 M1.24 14.33 C4.58 9.97, 7.67 6.59, 11.74 2.26 M0.98 20.73 C5.24 13.14, 12.5 7.65, 18.7 0.35 M0.98 20.73 C7.84 12.95, 14.94 6.39, 18.7 0.35 M1.38 26.37 C11.74 14.41, 20.45 6.39, 23.68 0.71 M1.38 26.37 C9.93 17.04, 18.55 7.07, 23.68 0.71 M1.12 32.77 C10.65 20.91, 20.98 10.65, 29.33 0.32 M1.12 32.77 C12.33 21.03, 21.76 8.21, 29.33 0.32 M0.85 39.17 C13.15 23.03, 25.62 7.82, 34.31 0.68 M0.85 39.17 C12.77 24.55, 26.06 9.25, 34.31 0.68 M1.25 44.81 C8.59 34.09, 18.71 25.25, 39.96 0.28 M1.25 44.81 C16.57 26.74, 30.5 10.25, 39.96 0.28 M0.99 51.21 C13.32 38.12, 19.98 27.09, 44.94 0.64 M0.99 51.21 C10.97 39.49, 19.82 28.51, 44.94 0.64 M1.38 56.85 C17.29 37.15, 30.4 20.53, 50.59 0.25 M1.38 56.85 C19.68 35.45, 37.79 15.99, 50.59 0.25 M3.09 60.99 C16.35 49.73, 24.84 36.74, 55.57 0.61 M3.09 60.99 C18.31 42.79, 34.75 23.38, 55.57 0.61 M4.14 65.87 C25.4 39.9, 48.18 13.71, 61.22 0.21 M4.14 65.87 C26.36 39.7, 49.15 13.82, 61.22 0.21 M6.5 69.25 C20.97 54.28, 36.45 37.5, 66.2 0.57 M6.5 69.25 C25.18 46.93, 42.89 25.99, 66.2 0.57 M9.52 71.88 C26.91 51.83, 44.02 31.67, 71.85 0.18 M9.52 71.88 C30.95 45.77, 54.02 19.21, 71.85 0.18 M13.85 72.99 C40.68 46.27, 63.07 13.86, 76.83 0.54 M13.85 72.99 C36.85 47.41, 59.59 20.23, 76.83 0.54 M19.5 72.6 C35.26 55.65, 52.6 34.9, 82.48 0.15 M19.5 72.6 C37.98 52.06, 58.88 29.71, 82.48 0.15 M24.48 72.96 C46.38 47.77, 66 22.15, 87.46 0.51 M24.48 72.96 C40.27 55.39, 56.44 37.74, 87.46 0.51 M29.47 73.32 C49.8 49.33, 68.59 27.42, 92.45 0.87 M29.47 73.32 C43.8 58.15, 55.77 42.19, 92.45 0.87 M35.11 72.92 C54.77 47.7, 76.08 24.16, 98.09 0.47 M35.11 72.92 C50.32 55.78, 64.18 40.21, 98.09 0.47 M40.1 73.28 C62.16 48.83, 80.05 27.53, 103.08 0.83 M40.1 73.28 C57.16 54.8, 73.23 35.24, 103.08 0.83 M45.74 72.89 C67.89 45.61, 93.13 14.85, 108.72 0.44 M45.74 72.89 C60.59 56.54, 75.17 38.79, 108.72 0.44 M50.73 73.25 C66.99 57.04, 81.15 40.49, 113.71 0.8 M50.73 73.25 C75.23 44.99, 98.16 17.98, 113.71 0.8 M56.37 72.85 C77.87 48.12, 99.02 26.39, 118.04 1.91 M56.37 72.85 C72.29 54.87, 88.21 36.5, 118.04 1.91 M61.36 73.21 C79.62 54.91, 94.35 31.51, 123.03 2.27 M61.36 73.21 C78.45 52.83, 94.69 35.01, 123.03 2.27 M67 72.82 C88.25 46.09, 113.72 20.73, 126.7 4.14 M67 72.82 C86.23 48.63, 107 25, 126.7 4.14 M71.99 73.18 C92.8 48.98, 116.81 21.09, 129.07 7.52 M71.99 73.18 C95.3 46.49, 117.21 21.63, 129.07 7.52 M77.63 72.79 C93.44 50.98, 111.14 33.5, 130.77 11.65 M77.63 72.79 C90.41 58.82, 102.66 46.05, 130.77 11.65 M82.62 73.15 C99.63 52.98, 115.34 32.43, 133.14 15.03 M82.62 73.15 C102.63 49.9, 123.32 27.58, 133.14 15.03 M88.26 72.75 C103.67 55.27, 116.3 38.2, 132.88 21.43 M88.26 72.75 C101.11 56.68, 113.65 42.51, 132.88 21.43 M93.25 73.11 C101.1 61.89, 111.57 48.46, 132.61 27.83 M93.25 73.11 C103.36 61.99, 113.73 51.01, 132.61 27.83 M98.89 72.72 C111.81 61.09, 120.68 44.26, 133.01 33.47 M98.89 72.72 C111.71 56.34, 125.81 40.84, 133.01 33.47 M103.88 73.08 C114.12 63.28, 119.49 55.85, 132.75 39.87 M103.88 73.08 C113.12 62.74, 123.85 50.81, 132.75 39.87 M109.52 72.68 C115.96 62.97, 124.84 57.48, 133.14 45.51 M109.52 72.68 C115.92 65.14, 120.99 58.59, 133.14 45.51 M114.51 73.04 C119.95 65.67, 124.22 61.81, 132.88 51.91 M114.51 73.04 C120.91 64.71, 128.3 57.05, 132.88 51.91 M121.47 71.14 C127.24 66.01, 128.47 59.65, 133.93 56.8 M121.47 71.14 C124.88 68.41, 127.44 63.42, 133.93 56.8" stroke="#e9ecef" stroke-width="0.5" fill="none"></path><path d="M17.98 0 M17.98 0 C41.12 -2.6, 66.36 -2.37, 113.29 0 M17.98 0 C41.8 -0.81, 65.2 -1.28, 113.29 0 M113.29 0 C126.89 1.74, 129.66 7.22, 131.27 17.98 M113.29 0 C123.37 -0.94, 131.43 4.36, 131.27 17.98 M131.27 17.98 C132.66 26.97, 133.48 35.95, 131.27 53.95 M131.27 17.98 C130.25 24.81, 131.27 32.52, 131.27 53.95 M131.27 53.95 C130.48 67.35, 123.88 72.96, 113.29 71.93 M131.27 53.95 C132.65 64.27, 125.23 71.62, 113.29 71.93 M113.29 71.93 C88.43 70.18, 65.46 73.1, 17.98 71.93 M113.29 71.93 C76.67 72.95, 40.86 71.8, 17.98 71.93 M17.98 71.93 C7.05 72.98, -0.55 64.91, 0 53.95 M17.98 71.93 C6.4 72.7, -1.6 67.13, 0 53.95 M0 53.95 C0.22 46.13, -0.23 36.61, 0 17.98 M0 53.95 C0.42 46.36, 0.22 39.13, 0 17.98 M0 17.98 C0.96 7.93, 4 1.67, 17.98 0 M0 17.98 C-0.02 5.51, 5.17 -2.18, 17.98 0" stroke="#868e96" stroke-width="1" fill="none"></path></g><g transform="translate(439.9847751964214 313.34197443181847) rotate(0 34.38996887207031 12.5)"><text x="34.38996887207031" y="0" font-family="Virgil, Segoe UI Emoji" font-size="20px" fill="#868e96" text-anchor="middle" style="white-space: pre;" direction="ltr" dominant-baseline="text-before-edge">Policy 1</text></g><g stroke-linecap="round" transform="translate(410.2456602616735 389.37757457386374) rotate(0 65.63609730113637 35.96413352272731)"><path d="M4.79 4.16 C4.79 4.16, 4.79 4.16, 4.79 4.16 M4.79 4.16 C4.79 4.16, 4.79 4.16, 4.79 4.16 M1.24 14.33 C4.09 10.02, 10.8 6.39, 11.74 2.26 M1.24 14.33 C5.09 10.39, 8.47 4.86, 11.74 2.26 M0.98 20.73 C6.05 16.67, 10.3 11.71, 18.7 0.35 M0.98 20.73 C6.69 13.69, 13.68 5.71, 18.7 0.35 M1.38 26.37 C5.7 20.28, 12.04 17.17, 23.68 0.71 M1.38 26.37 C8.59 17.62, 17.65 8.51, 23.68 0.71 M1.12 32.77 C8.96 20.41, 19.93 12.29, 29.33 0.32 M1.12 32.77 C10.22 22.08, 18.65 12.29, 29.33 0.32 M0.85 39.17 C10.36 28.56, 18.15 17.9, 34.31 0.68 M0.85 39.17 C8.81 31.5, 15.02 22.67, 34.31 0.68 M1.25 44.81 C12.93 28.01, 27.04 14.2, 39.96 0.28 M1.25 44.81 C9.96 35.77, 17.34 26.09, 39.96 0.28 M0.99 51.21 C14.86 34.48, 29.72 14.89, 44.94 0.64 M0.99 51.21 C16.82 31.47, 34.53 12.42, 44.94 0.64 M1.38 56.85 C16.12 38.97, 28.67 24.14, 50.59 0.25 M1.38 56.85 C14.19 42.45, 27.66 26.9, 50.59 0.25 M3.09 60.99 C16.6 45.3, 32.43 26.04, 55.57 0.61 M3.09 60.99 C23.36 37.32, 43.56 14.81, 55.57 0.61 M4.14 65.87 C25.42 39.05, 46.28 17.25, 61.22 0.21 M4.14 65.87 C21.61 45.28, 38.33 24.2, 61.22 0.21 M6.5 69.25 C23.45 50.63, 42.17 29.14, 66.2 0.57 M6.5 69.25 C27.58 44.39, 49.94 19.01, 66.2 0.57 M9.52 71.88 C29.66 51.06, 48.19 24.66, 71.85 0.18 M9.52 71.88 C28.17 50.25, 46.62 30.28, 71.85 0.18 M13.85 72.99 C32.37 47.63, 52.56 26.32, 76.83 0.54 M13.85 72.99 C35.98 48.2, 59.23 22.57, 76.83 0.54 M19.5 72.6 C40.24 51.53, 60.87 27.75, 82.48 0.15 M19.5 72.6 C42.94 45.54, 67.97 19.08, 82.48 0.15 M24.48 72.96 C48.18 45.7, 70.12 23.13, 87.46 0.51 M24.48 72.96 C39.72 55.71, 55.84 37.45, 87.46 0.51 M29.47 73.32 C44.45 56.56, 60.4 36.18, 92.45 0.87 M29.47 73.32 C44.68 57.1, 59.58 40.01, 92.45 0.87 M35.11 72.92 C54.1 48.67, 77.44 25.8, 98.09 0.47 M35.11 72.92 C49.26 57.82, 61.95 42.36, 98.09 0.47 M40.1 73.28 C57 51.2, 76.85 31.54, 103.08 0.83 M40.1 73.28 C62.17 47.85, 84.85 22.16, 103.08 0.83 M45.74 72.89 C69.2 43.48, 93.66 17.44, 108.72 0.44 M45.74 72.89 C62.76 54.38, 78.79 35.07, 108.72 0.44 M50.73 73.25 C67.51 49.46, 89.1 29.5, 113.71 0.8 M50.73 73.25 C74.51 46.12, 97.73 19.72, 113.71 0.8 M56.37 72.85 C69.81 57.22, 86.7 37.79, 118.04 1.91 M56.37 72.85 C75.4 51.51, 92.75 30.86, 118.04 1.91 M61.36 73.21 C86.49 47.59, 108.3 17.92, 123.03 2.27 M61.36 73.21 C77.34 53.92, 94.4 35.47, 123.03 2.27 M67 72.82 C78.43 59.86, 93.99 44.44, 126.7 4.14 M67 72.82 C83.21 54.67, 98.9 37.73, 126.7 4.14 M71.99 73.18 C92.28 45.83, 115.28 21.9, 129.07 7.52 M71.99 73.18 C84.41 57.21, 96.7 43.03, 129.07 7.52 M77.63 72.79 C99.54 48.63, 116.57 27.13, 130.77 11.65 M77.63 72.79 C98.7 48.39, 119.79 25.71, 130.77 11.65 M82.62 73.15 C92.53 60.95, 103.01 46.86, 133.14 15.03 M82.62 73.15 C101.55 52.83, 119.99 29.95, 133.14 15.03 M88.26 72.75 C95.51 63.28, 104.74 51.36, 132.88 21.43 M88.26 72.75 C105.76 52.77, 121.68 34.34, 132.88 21.43 M93.25 73.11 C102.41 60.88, 113.53 52.34, 132.61 27.83 M93.25 73.11 C108.02 56.91, 123.3 38.58, 132.61 27.83 M98.89 72.72 C109.7 59.32, 123.43 43.73, 133.01 33.47 M98.89 72.72 C111.97 59, 123.84 44.96, 133.01 33.47 M103.88 73.08 C116.44 61.9, 125.47 49.27, 132.75 39.87 M103.88 73.08 C112.5 62.39, 123.26 50.1, 132.75 39.87 M109.52 72.68 C115.91 66.34, 123.43 57.77, 133.14 45.51 M109.52 72.68 C118.41 63.51, 125.95 52.49, 133.14 45.51 M114.51 73.04 C121.11 64.93, 124.76 57.7, 132.88 51.91 M114.51 73.04 C118.62 67.3, 123.57 61.43, 132.88 51.91 M121.47 71.14 C124.62 67.85, 129.6 62.14, 133.93 56.8 M121.47 71.14 C124.71 66.45, 127.75 62.6, 133.93 56.8" stroke="#b2f2bb" stroke-width="0.5" fill="none"></path><path d="M17.98 0 M17.98 0 C54.25 1.46, 88.23 1.28, 113.29 0 M17.98 0 C51.41 -1.04, 85.84 0.51, 113.29 0 M113.29 0 C124.48 1.77, 130.65 7.98, 131.27 17.98 M113.29 0 C123.16 1, 132.35 4.47, 131.27 17.98 M131.27 17.98 C130.44 32.09, 129.54 43.07, 131.27 53.95 M131.27 17.98 C131.77 28.74, 131.36 38.6, 131.27 53.95 M131.27 53.95 C131.09 65.23, 124.7 70.65, 113.29 71.93 M131.27 53.95 C131.16 68.23, 126.37 72.09, 113.29 71.93 M113.29 71.93 C77.76 72.89, 41.25 71.26, 17.98 71.93 M113.29 71.93 C89.77 73.35, 65.44 73.41, 17.98 71.93 M17.98 71.93 C7.28 70.74, 1.45 64.8, 0 53.95 M17.98 71.93 C6.03 70.07, -1.57 67.71, 0 53.95 M0 53.95 C-2.09 39.46, -1.36 29.23, 0 17.98 M0 53.95 C0.82 41.98, 0.61 30.92, 0 17.98 M0 17.98 C1.66 7.35, 4.78 0.78, 17.98 0 M0 17.98 C-1.15 5.81, 7.66 -2.04, 17.98 0" stroke="#2f9e44" stroke-width="1" fill="none"></path></g><g transform="translate(437.0817926580248 412.841708096591) rotate(0 38.799964904785156 12.5)"><text x="38.799964904785156" y="0" font-family="Virgil, Segoe UI Emoji" font-size="20px" fill="#2f9e44" text-anchor="middle" style="white-space: pre;" direction="ltr" dominant-baseline="text-before-edge">Policy 2</text></g><g stroke-linecap="round" transform="translate(411.75267375599174 488.86399147727275) rotate(0 65.63609730113637 35.96413352272731)"><path d="M4.79 4.16 C4.79 4.16, 4.79 4.16, 4.79 4.16 M4.79 4.16 C4.79 4.16, 4.79 4.16, 4.79 4.16 M1.24 14.33 C4.61 9.72, 9.44 4.7, 11.74 2.26 M1.24 14.33 C4.72 11.25, 7.54 5.97, 11.74 2.26 M0.98 20.73 C6.04 14.03, 11.18 10.62, 18.7 0.35 M0.98 20.73 C6.01 13.19, 11.74 7.56, 18.7 0.35 M1.38 26.37 C9.29 18.17, 18.97 9.29, 23.68 0.71 M1.38 26.37 C8.75 19.19, 16.16 10.64, 23.68 0.71 M1.12 32.77 C10.47 20.49, 24.07 9.51, 29.33 0.32 M1.12 32.77 C11.82 20.46, 21.66 10.48, 29.33 0.32 M0.85 39.17 C8.94 30.57, 17.97 20.76, 34.31 0.68 M0.85 39.17 C8.86 30.23, 17.33 19.47, 34.31 0.68 M1.25 44.81 C11.25 35.91, 20.32 25.59, 39.96 0.28 M1.25 44.81 C13.06 30.02, 27.05 15.91, 39.96 0.28 M0.99 51.21 C11.99 40.2, 20.07 29.17, 44.94 0.64 M0.99 51.21 C13.07 35.99, 26.67 21.94, 44.94 0.64 M1.38 56.85 C17.95 37.07, 35.76 17.38, 50.59 0.25 M1.38 56.85 C20.08 34.3, 39.1 13.48, 50.59 0.25 M3.09 60.99 C18.19 46.08, 31.07 29.54, 55.57 0.61 M3.09 60.99 C17.48 41.83, 34.44 24.75, 55.57 0.61 M4.14 65.87 C25.64 40.46, 46.59 16.97, 61.22 0.21 M4.14 65.87 C17.03 50.69, 31.92 33.56, 61.22 0.21 M6.5 69.25 C25.64 48.41, 41.74 28.5, 66.2 0.57 M6.5 69.25 C30.36 43.78, 52.43 16.1, 66.2 0.57 M9.52 71.88 C25.3 51.73, 42.95 33.78, 71.85 0.18 M9.52 71.88 C22.22 57.57, 36.96 41.85, 71.85 0.18 M13.85 72.99 C31.32 53.31, 47.94 36.42, 76.83 0.54 M13.85 72.99 C37.24 43.73, 62.3 16.16, 76.83 0.54 M19.5 72.6 C33.14 54.19, 46.26 39.01, 82.48 0.15 M19.5 72.6 C44.18 45.09, 66.4 18.58, 82.48 0.15 M24.48 72.96 C49.9 43.71, 75.11 17.88, 87.46 0.51 M24.48 72.96 C37.45 57.65, 50.97 41.09, 87.46 0.51 M29.47 73.32 C53.21 48.74, 76.33 18.8, 92.45 0.87 M29.47 73.32 C41.18 59.33, 54.09 43.83, 92.45 0.87 M35.11 72.92 C60.17 44.29, 82.27 18.61, 98.09 0.47 M35.11 72.92 C50.58 54.51, 67.1 37.64, 98.09 0.47 M40.1 73.28 C63.55 47.76, 88.14 17.97, 103.08 0.83 M40.1 73.28 C61.43 48.07, 84.5 21.64, 103.08 0.83 M45.74 72.89 C70.03 47.58, 91.92 21.63, 108.72 0.44 M45.74 72.89 C70.4 46.5, 92.8 19.61, 108.72 0.44 M50.73 73.25 C69.72 49.78, 93.02 23.15, 113.71 0.8 M50.73 73.25 C68.01 54.19, 85.3 34.34, 113.71 0.8 M56.37 72.85 C79.17 48.67, 99.38 20.72, 118.04 1.91 M56.37 72.85 C76.69 48.86, 95.47 25.73, 118.04 1.91 M61.36 73.21 C75.94 54.1, 92.48 34.7, 123.03 2.27 M61.36 73.21 C82.76 48.83, 105.41 22.77, 123.03 2.27 M67 72.82 C82.97 52.76, 98.26 34.43, 126.7 4.14 M67 72.82 C89.77 48.82, 111.1 24.02, 126.7 4.14 M71.99 73.18 C91.21 48, 112.5 27.72, 129.07 7.52 M71.99 73.18 C87.24 55.37, 101.52 39.69, 129.07 7.52 M77.63 72.79 C88.19 58.37, 102.6 43.19, 130.77 11.65 M77.63 72.79 C87.97 60.52, 100.33 47.57, 130.77 11.65 M82.62 73.15 C100.57 50.78, 119.53 32.8, 133.14 15.03 M82.62 73.15 C99.19 52.76, 117.8 32.78, 133.14 15.03 M88.26 72.75 C102.34 60.1, 113.55 46.38, 132.88 21.43 M88.26 72.75 C99.25 59.34, 111.32 44.78, 132.88 21.43 M93.25 73.11 C103.18 64.45, 112.37 51.13, 132.61 27.83 M93.25 73.11 C101.78 63.25, 108.7 55.16, 132.61 27.83 M98.89 72.72 C109.69 63.26, 116.11 51.98, 133.01 33.47 M98.89 72.72 C106.56 61.8, 115.89 52.46, 133.01 33.47 M103.88 73.08 C109.91 64.9, 116.96 59.74, 132.75 39.87 M103.88 73.08 C115.11 59.81, 126.15 46.93, 132.75 39.87 M109.52 72.68 C120.06 61.68, 126.35 53.29, 133.14 45.51 M109.52 72.68 C116.93 63.76, 124.71 54.5, 133.14 45.51 M114.51 73.04 C122.24 63.04, 129.27 58.11, 132.88 51.91 M114.51 73.04 C119.27 68.18, 123.36 62.89, 132.88 51.91 M121.47 71.14 C128.25 63.94, 132.08 61.18, 133.93 56.8 M121.47 71.14 C126.85 65.79, 130.59 60.69, 133.93 56.8" stroke="#ffc9c9" stroke-width="0.5" fill="none"></path><path d="M17.98 0 M17.98 0 C52.36 1.9, 88.78 1.48, 113.29 0 M17.98 0 C49.89 -0.96, 82.7 -1.71, 113.29 0 M113.29 0 C123.32 1.21, 130.21 6.84, 131.27 17.98 M113.29 0 C127.02 -0.96, 129.24 6.01, 131.27 17.98 M131.27 17.98 C129.98 28.45, 130.71 43.37, 131.27 53.95 M131.27 17.98 C130.87 25.74, 130.63 33.02, 131.27 53.95 M131.27 53.95 C130.41 66.38, 124.5 73.36, 113.29 71.93 M131.27 53.95 C132.89 68.09, 126.52 72.66, 113.29 71.93 M113.29 71.93 C85.73 73.55, 58.44 72.13, 17.98 71.93 M113.29 71.93 C76.33 72.77, 41.12 72.21, 17.98 71.93 M17.98 71.93 C7.2 73.73, 0.49 67.72, 0 53.95 M17.98 71.93 C3.82 73.63, -1.47 64.13, 0 53.95 M0 53.95 C0.94 41.49, 1.6 30.77, 0 17.98 M0 53.95 C-0.86 44.78, 0.83 34.16, 0 17.98 M0 17.98 C1.32 4.51, 6.24 1.13, 17.98 0 M0 17.98 C-0.38 4.97, 5.88 0.33, 17.98 0" stroke="#e03131" stroke-width="1" fill="none"></path></g><g transform="translate(438.8988037109366 512.3281250000002) rotate(0 38.489967346191406 12.5)"><text x="38.489967346191406" y="0" font-family="Virgil, Segoe UI Emoji" font-size="20px" fill="#e03131" text-anchor="middle" style="white-space: pre;" direction="ltr" dominant-baseline="text-before-edge">Policy 3</text></g><g stroke-linecap="round"><g transform="translate(192.75556416426093 326.3382901793211) rotate(0 86.24799326883812 -10.640983086630285)"><path d="M1.02 1.15 C29.48 -2.62, 143.28 -18.33, 171.48 -22.44" stroke="#1e1e1e" stroke-width="1.5" fill="none" stroke-dasharray="8 9"></path></g><g transform="translate(192.75556416426093 326.3382901793211) rotate(0 86.24799326883812 -10.640983086630285)"><path d="M146.92 -7.4 C155.28 -14.75, 163.06 -16.72, 173.03 -22.66" stroke="#1e1e1e" stroke-width="1.5" fill="none"></path></g><g transform="translate(192.75556416426093 326.3382901793211) rotate(0 86.24799326883812 -10.640983086630285)"><path d="M144.06 -27.72 C153.48 -27.8, 162.28 -22.48, 173.03 -22.66" stroke="#1e1e1e" stroke-width="1.5" fill="none"></path></g></g><mask></mask><g transform="translate(196.70922920920702 422.6246448863642) rotate(0 83.56794738769531 10)"><text x="83.56794738769531" y="0" font-family="Virgil, Segoe UI Emoji" font-size="16px" fill="#1e1e1e" text-anchor="middle" style="white-space: pre;" direction="ltr" dominant-baseline="text-before-edge">Returns vote results</text></g><g transform="translate(186.91683751886558 262.9486860795458) rotate(0 78.67195129394531 20.00000000000003)"><text x="78.67195129394531" y="0" font-family="Virgil, Segoe UI Emoji" font-size="16px" fill="#1e1e1e" text-anchor="middle" style="white-space: pre;" direction="ltr" dominant-baseline="text-before-edge">Ask policies to vote</text><text x="78.67195129394531" y="20" font-family="Virgil, Segoe UI Emoji" font-size="16px" fill="#1e1e1e" text-anchor="middle" style="white-space: pre;" direction="ltr" dominant-baseline="text-before-edge"> on query</text></g><g transform="translate(606.2093498923562 324.5502485795454) rotate(0 101.42991638183594 12.5)"><text x="0" y="0" font-family="Virgil, Segoe UI Emoji" font-size="20px" fill="#1e1e1e" text-anchor="start" style="white-space: pre;" direction="ltr" dominant-baseline="text-before-edge">Policy makes a vote:</text></g><g stroke-linecap="round" transform="translate(605.3206780173564 368.38458806818187) rotate(0 12.80628551136374 12.806285511363683)"><path d="M1.7 1.48 C1.7 1.48, 1.7 1.48, 1.7 1.48 M1.7 1.48 C1.7 1.48, 1.7 1.48, 1.7 1.48 M3.41 5.62 C4.34 4.19, 5.47 3.43, 7.35 1.09 M3.41 5.62 C4.64 4.04, 6.44 2.16, 7.35 1.09 M3.15 12.01 C5.83 10.11, 8.97 5.9, 12.99 0.69 M3.15 12.01 C5.5 9.33, 6.96 7.73, 12.99 0.69 M1.58 19.92 C8.51 14.15, 14.58 5.96, 17.98 1.05 M1.58 19.92 C6.34 14.22, 12.62 6.46, 17.98 1.05 M2.63 24.81 C10.39 14.4, 17.02 6.98, 22.31 2.17 M2.63 24.81 C10.88 15.08, 18.33 6.91, 22.31 2.17 M6.96 25.92 C12.74 21.61, 16.81 14.3, 26.64 3.28 M6.96 25.92 C11.22 20.1, 17.86 13.83, 26.64 3.28 M11.94 26.28 C14.35 23.48, 16.31 19.05, 27.69 8.17 M11.94 26.28 C16.02 20.75, 22.39 15.89, 27.69 8.17 M17.59 25.89 C19.69 21.48, 25.14 18.12, 27.43 14.57 M17.59 25.89 C21.42 21.25, 25.85 17.19, 27.43 14.57" stroke="#1e1e1e" stroke-width="0.5" fill="none"></path><path d="M6.4 0 M6.4 0 C11.65 -0.91, 16.39 -0.25, 19.21 0 M19.21 0 C22.77 -1.07, 27.37 3.5, 25.61 6.4 M25.61 6.4 C24.48 10.82, 25.68 14.57, 25.61 19.21 M25.61 19.21 C26.8 22.2, 23.53 26.77, 19.21 25.61 M19.21 25.61 C15.44 24.7, 12.47 26, 6.4 25.61 M6.4 25.61 C1.98 25.02, 1.45 21.77, 0 19.21 M0 19.21 C-0.7 16.25, -0.46 10.62, 0 6.4 M0 6.4 C-1.84 2.15, 1.09 -1.06, 6.4 0" stroke="#868e96" stroke-width="1.5" fill="none" stroke-dasharray="8 9"></path></g><g transform="translate(640.7255075628109 371.1908735795456) rotate(0 82.78394317626953 10)"><text x="0" y="0" font-family="Virgil, Segoe UI Emoji" font-size="16px" fill="#868e96" text-anchor="start" style="white-space: pre;" direction="ltr" dominant-baseline="text-before-edge">Abstain from decision</text></g><g stroke-linecap="round" transform="translate(605.3206780173564 412.34454900568187) rotate(0 12.80628551136374 12.806285511363683)"><path d="M1.7 1.48 C1.7 1.48, 1.7 1.48, 1.7 1.48 M1.7 1.48 C1.7 1.48, 1.7 1.48, 1.7 1.48 M3.41 5.62 C4.75 4, 6.52 2.56, 7.35 1.09 M3.41 5.62 C4.98 4.14, 6.45 2.14, 7.35 1.09 M3.15 12.01 C6.17 9.29, 11.9 4.46, 12.99 0.69 M3.15 12.01 C7.74 7.25, 10.28 2.72, 12.99 0.69 M1.58 19.92 C5.77 15.55, 10.39 10.27, 17.98 1.05 M1.58 19.92 C5.69 13.82, 11.9 9.53, 17.98 1.05 M2.63 24.81 C9.23 17.31, 14.5 8.45, 22.31 2.17 M2.63 24.81 C8.17 20.15, 11.7 13.27, 22.31 2.17 M6.96 25.92 C14.44 17.35, 21.61 10.46, 26.64 3.28 M6.96 25.92 C12.48 18.76, 20.1 10.2, 26.64 3.28 M11.94 26.28 C16.96 22.42, 21.35 14.36, 27.69 8.17 M11.94 26.28 C16.1 20.93, 21.43 14.51, 27.69 8.17 M17.59 25.89 C21.01 21.34, 23.42 18.49, 27.43 14.57 M17.59 25.89 C19.56 23.06, 22.85 19.32, 27.43 14.57" stroke="#b2f2bb" stroke-width="0.5" fill="none"></path><path d="M6.4 0 M6.4 0 C8.17 -0.43, 12.64 0.23, 19.21 0 M19.21 0 C24.38 1.84, 26.36 0.27, 25.61 6.4 M25.61 6.4 C25.17 9.45, 24.73 11.42, 25.61 19.21 M25.61 19.21 C26.08 25.11, 24.06 26.03, 19.21 25.61 M19.21 25.61 C13.78 25.15, 10.09 25.21, 6.4 25.61 M6.4 25.61 C3.9 23.84, -1.26 23.29, 0 19.21 M0 19.21 C0.72 14.95, 1.13 12.21, 0 6.4 M0 6.4 C1.98 1.82, 1.19 0.99, 6.4 0" stroke="#2f9e44" stroke-width="1.5" fill="none" stroke-dasharray="8 9"></path></g><g transform="translate(640.6278513128109 415.0531782670456) rotate(0 53.53595733642578 10)"><text x="0" y="0" font-family="Virgil, Segoe UI Emoji" font-size="16px" fill="#2f9e44" text-anchor="start" style="white-space: pre;" direction="ltr" dominant-baseline="text-before-edge">Allows access</text></g><g stroke-linecap="round" transform="translate(605.4183342673564 455.27911931818187) rotate(0 12.80628551136374 12.806285511363683)"><path d="M1.7 1.48 C1.7 1.48, 1.7 1.48, 1.7 1.48 M1.7 1.48 C1.7 1.48, 1.7 1.48, 1.7 1.48 M3.41 5.62 C5.42 4.2, 6.81 2.35, 7.35 1.09 M3.41 5.62 C4.64 4.02, 6.52 2.27, 7.35 1.09 M3.15 12.01 C7.62 8.26, 10.83 5.87, 12.99 0.69 M3.15 12.01 C6.03 8, 9.2 4.78, 12.99 0.69 M1.58 19.92 C7.97 12.9, 14.56 6.23, 17.98 1.05 M1.58 19.92 C6.71 13.26, 11.7 8.6, 17.98 1.05 M2.63 24.81 C7.56 21.46, 9.78 14.79, 22.31 2.17 M2.63 24.81 C6.85 20.62, 12.28 14.02, 22.31 2.17 M6.96 25.92 C14.89 15.97, 20.58 10.71, 26.64 3.28 M6.96 25.92 C13.27 18.74, 18.5 11.95, 26.64 3.28 M11.94 26.28 C18 17.85, 25.03 14.51, 27.69 8.17 M11.94 26.28 C17.42 20.51, 23.45 12.91, 27.69 8.17 M17.59 25.89 C20.87 20.76, 24.35 15.92, 27.43 14.57 M17.59 25.89 C19.28 23.67, 21.57 21.8, 27.43 14.57" stroke="#ffc9c9" stroke-width="0.5" fill="none"></path><path d="M6.4 0 M6.4 0 C9.41 0.09, 12.58 0.18, 19.21 0 M19.21 0 C21.92 0.75, 26.63 2.6, 25.61 6.4 M25.61 6.4 C25.4 8.68, 26.11 13.02, 25.61 19.21 M25.61 19.21 C27.4 23.31, 25.17 25.32, 19.21 25.61 M19.21 25.61 C13.96 24.7, 10.42 26.09, 6.4 25.61 M6.4 25.61 C1.95 23.63, 0.51 21.81, 0 19.21 M0 19.21 C-0.98 14.77, -0.16 9.98, 0 6.4 M0 6.4 C0.07 0.88, 3.32 -0.5, 6.4 0" stroke="#e03131" stroke-width="1.5" fill="none" stroke-dasharray="8 9"></path></g><g transform="translate(640.6234123923564 457.9877485795456) rotate(0 55.25597381591797 10)"><text x="0" y="0" font-family="Virgil, Segoe UI Emoji" font-size="16px" fill="#e03131" text-anchor="start" style="white-space: pre;" direction="ltr" dominant-baseline="text-before-edge">Denies access</text></g><g stroke-linecap="round" transform="translate(265.29764787624504 482.1872882491523) rotate(366.3016491726095 8.715820312500057 8.715820312500057)"><path d="M0.06 2.7 C0.06 2.7, 0.06 2.7, 0.06 2.7 M0.06 2.7 C0.06 2.7, 0.06 2.7, 0.06 2.7 M0.45 8.34 C3.37 6.31, 4.31 3.27, 6.36 1.55 M0.45 8.34 C2.19 6.12, 3.97 4.17, 6.36 1.55 M0.85 13.99 C4.68 12.06, 5.22 7.34, 11.34 1.91 M0.85 13.99 C4.57 10.6, 7.11 6.73, 11.34 1.91 M2.55 18.12 C7.14 11.74, 11.5 6.69, 16.99 1.52 M2.55 18.12 C6.57 14.32, 8.02 11.19, 16.99 1.52 M7.54 18.48 C10.67 13.89, 14.74 12.74, 18.69 5.65 M7.54 18.48 C11.66 15.14, 13.99 10.16, 18.69 5.65 M13.18 18.08 C14.39 16.47, 16.25 13.86, 18.43 12.05 M13.18 18.08 C14.98 15.73, 17.34 13.75, 18.43 12.05" stroke="#b2f2bb" stroke-width="0.5" fill="none"></path><path d="M4.36 0 M4.36 0 C7.29 0.58, 8.94 0.27, 13.07 0 M13.07 0 C16.76 0.05, 16.56 3.02, 17.43 4.36 M17.43 4.36 C17.62 8.45, 17.62 11.04, 17.43 13.07 M17.43 13.07 C18.8 15.14, 15.79 17.33, 13.07 17.43 M13.07 17.43 C9.5 16.67, 6.92 16.73, 4.36 17.43 M4.36 17.43 C-0.54 18.98, 1.79 17.64, 0 13.07 M0 13.07 C0.27 9.18, 0.37 5.79, 0 4.36 M0 4.36 C-1.98 0.93, 0.08 1.05, 4.36 0" stroke="#2f9e44" stroke-width="1.5" fill="none" stroke-dasharray="8 9"></path></g><g stroke-linecap="round" transform="translate(238.4784761095823 478.9277829195936) rotate(366.3016491726095 8.715820312500057 8.715820312500057)"><path d="M0.06 2.7 C0.06 2.7, 0.06 2.7, 0.06 2.7 M0.06 2.7 C0.06 2.7, 0.06 2.7, 0.06 2.7 M0.45 8.34 C3.06 7.11, 4.21 3.95, 6.36 1.55 M0.45 8.34 C2.9 5.89, 5.11 3.48, 6.36 1.55 M0.85 13.99 C3.78 11.88, 7.56 7.99, 11.34 1.91 M0.85 13.99 C2.95 11.84, 6.45 8.82, 11.34 1.91 M2.55 18.12 C6.86 10.34, 13.64 5.88, 16.99 1.52 M2.55 18.12 C6.76 11.9, 11.44 7.59, 16.99 1.52 M7.54 18.48 C9.32 16.04, 15.53 9.37, 18.69 5.65 M7.54 18.48 C11.16 14.47, 13.92 12.06, 18.69 5.65 M13.18 18.08 C14.85 16.46, 17.41 13.92, 18.43 12.05 M13.18 18.08 C14.91 15.64, 16.4 14.03, 18.43 12.05" stroke="#1e1e1e" stroke-width="0.5" fill="none"></path><path d="M4.36 0 M4.36 0 C7.4 -0.82, 9.51 0.36, 13.07 0 M13.07 0 C17.37 0.88, 15.48 3.18, 17.43 4.36 M17.43 4.36 C17.33 6.31, 17.96 8.85, 17.43 13.07 M17.43 13.07 C18.76 17.34, 16.3 19.26, 13.07 17.43 M13.07 17.43 C10.97 17.33, 9.98 17.04, 4.36 17.43 M4.36 17.43 C1.76 19.09, -1 14.5, 0 13.07 M0 13.07 C-0.8 11.9, -0.48 9.46, 0 4.36 M0 4.36 C-0.77 -0.32, 2.82 -1.94, 4.36 0" stroke="#868e96" stroke-width="1.5" fill="none" stroke-dasharray="8 9"></path></g><g stroke-linecap="round" transform="translate(291.8068785046755 485.3937724781355) rotate(366.3016491726095 8.715820312500057 8.715820312500057)"><path d="M0.06 2.7 C0.06 2.7, 0.06 2.7, 0.06 2.7 M0.06 2.7 C0.06 2.7, 0.06 2.7, 0.06 2.7 M0.45 8.34 C2.5 6.14, 2.82 5.38, 6.36 1.55 M0.45 8.34 C1.81 6.57, 4.05 4.81, 6.36 1.55 M0.85 13.99 C5.75 11.76, 7.86 6.51, 11.34 1.91 M0.85 13.99 C4.5 10.65, 6.48 7.6, 11.34 1.91 M2.55 18.12 C7.37 14.16, 12.33 6.73, 16.99 1.52 M2.55 18.12 C6.82 14.66, 10.02 9.01, 16.99 1.52 M7.54 18.48 C12.15 16.15, 14.97 12.68, 18.69 5.65 M7.54 18.48 C9.91 15.09, 13.75 11.57, 18.69 5.65 M13.18 18.08 C13.66 16.38, 15.63 15.45, 18.43 12.05 M13.18 18.08 C15.2 16.51, 16.22 14.18, 18.43 12.05" stroke="#ffc9c9" stroke-width="0.5" fill="none"></path><path d="M4.36 0 M4.36 0 C7.14 0.27, 11.55 0.76, 13.07 0 M13.07 0 C16.08 0.55, 16.44 3.39, 17.43 4.36 M17.43 4.36 C18.23 7.77, 17.56 8.93, 17.43 13.07 M17.43 13.07 C16.29 16.03, 16.42 15.53, 13.07 17.43 M13.07 17.43 C9.6 17.76, 7.67 17.74, 4.36 17.43 M4.36 17.43 C-0.5 19.16, -1.71 15.6, 0 13.07 M0 13.07 C0.56 11.09, 0.59 8.2, 0 4.36 M0 4.36 C0.32 3.28, -0.39 1.4, 4.36 0" stroke="#e03131" stroke-width="1.5" fill="none" stroke-dasharray="8 9"></path></g><g stroke-linecap="round" transform="translate(37.73189960826642 826.2015269886368) rotate(0 62.5 27.5)"><path d="M5.33 1.98 C5.33 1.98, 5.33 1.98, 5.33 1.98 M5.33 1.98 C5.33 1.98, 5.33 1.98, 5.33 1.98 M1.79 12.15 C6.22 10.47, 9.88 5.4, 12.28 0.08 M1.79 12.15 C5.63 10.18, 6.77 3.68, 12.28 0.08 M2.18 17.8 C8.63 10.02, 9.33 11.62, 15.96 1.95 M2.18 17.8 C5.33 14.29, 9.03 9.35, 15.96 1.95 M1.92 24.19 C5.35 18.82, 14.23 11.85, 20.95 2.31 M1.92 24.19 C7.33 19.68, 12.43 13.85, 20.95 2.31 M1.66 30.59 C7.84 23.66, 21.5 14.66, 26.59 1.91 M1.66 30.59 C6.37 23.52, 15.31 17.61, 26.59 1.91 M2.05 36.24 C14.94 25.79, 26.54 10.74, 31.58 2.27 M2.05 36.24 C7.57 27.57, 14.57 20.34, 31.58 2.27 M1.79 42.63 C13.02 28.77, 17.35 17.86, 37.22 1.88 M1.79 42.63 C8.45 32.95, 15.15 23.08, 37.22 1.88 M3.5 46.77 C17.19 26.66, 33.52 14.17, 42.21 2.24 M3.5 46.77 C18.95 29.89, 32.63 15.71, 42.21 2.24 M3.89 52.41 C16.19 35.31, 25.95 22.67, 47.85 1.84 M3.89 52.41 C19.74 34.09, 35.3 19.29, 47.85 1.84 M7.57 54.28 C21.04 41.91, 24.46 28.37, 52.84 2.2 M7.57 54.28 C17.69 44.99, 28.7 32.67, 52.84 2.2 M10.59 56.9 C23.32 41.22, 36.49 24.59, 57.82 2.56 M10.59 56.9 C21.74 42.92, 36.01 31.32, 57.82 2.56 M16.23 56.51 C30.74 40.3, 46.11 21.78, 63.47 2.17 M16.23 56.51 C30.75 41.73, 43.67 24.53, 63.47 2.17 M21.22 56.87 C39.07 37.9, 50.96 23.34, 68.45 2.53 M21.22 56.87 C35.23 43.34, 45.79 26.59, 68.45 2.53 M26.2 57.23 C40.61 38.2, 55.86 23.23, 74.1 2.14 M26.2 57.23 C43.53 41.71, 54.53 24.63, 74.1 2.14 M31.85 56.83 C43.84 47.42, 54.37 33.59, 79.08 2.5 M31.85 56.83 C42.62 44.93, 54.28 30.06, 79.08 2.5 M36.83 57.19 C46.42 40.45, 64.96 25.93, 84.07 2.86 M36.83 57.19 C51.75 37.83, 70.54 21.25, 84.07 2.86 M42.48 56.8 C59.04 42.95, 72.46 27.6, 89.71 2.46 M42.48 56.8 C54.65 44.44, 65.78 29.66, 89.71 2.46 M47.46 57.16 C60.4 43.97, 70.72 31.13, 94.7 2.82 M47.46 57.16 C61.64 40.76, 72.09 29.21, 94.7 2.82 M53.11 56.77 C65.51 34.77, 86.58 20.91, 100.34 2.43 M53.11 56.77 C65.4 40.61, 80.44 23.65, 100.34 2.43 M58.09 57.13 C66.75 44.68, 77.5 34.93, 105.33 2.79 M58.09 57.13 C72.58 39.07, 88.05 23.29, 105.33 2.79 M63.08 57.49 C73.44 42.11, 81.25 33.16, 110.97 2.39 M63.08 57.49 C73.88 42.99, 84.06 33.17, 110.97 2.39 M68.72 57.09 C89.36 35.73, 100.37 19.79, 117.27 1.24 M68.72 57.09 C87.03 34.22, 105.46 14.94, 117.27 1.24 M73.71 57.45 C88.71 43.29, 95.56 27.56, 120.95 3.11 M73.71 57.45 C86.39 44.08, 96.52 29.56, 120.95 3.11 M79.35 57.06 C85.35 46.48, 100.69 34.79, 123.97 5.74 M79.35 57.06 C89.76 42.35, 100.26 32.17, 123.97 5.74 M84.34 57.42 C95.91 46.18, 100.12 41.31, 125.02 10.62 M84.34 57.42 C98.96 40.31, 114.51 22.1, 125.02 10.62 M89.98 57.02 C95.3 51.94, 109.78 42.32, 124.76 17.02 M89.98 57.02 C103.79 41.11, 113.65 29.21, 124.76 17.02 M94.97 57.38 C103.72 45.71, 115.28 28.59, 124.49 23.42 M94.97 57.38 C103.02 48.15, 112.57 35.37, 124.49 23.42 M99.96 57.74 C107.83 49.45, 113.09 40.38, 124.89 29.06 M99.96 57.74 C106.8 51.07, 110.45 43.1, 124.89 29.06 M105.6 57.35 C114.86 46.27, 116.23 44.35, 124.63 35.46 M105.6 57.35 C110.47 50.9, 117.98 45.19, 124.63 35.46 M111.9 56.2 C112.61 54.94, 120.28 47.03, 124.37 41.86 M111.9 56.2 C117.59 50.67, 119.42 46.4, 124.37 41.86" stroke="#ffc9c9" stroke-width="0.5" fill="none"></path><path d="M13.75 0 M13.75 0 C47.86 -3.04, 78.14 2, 111.25 0 M111.25 0 C118.45 -0.67, 128.13 2.38, 125 13.75 M125 13.75 C122.77 20.12, 120.59 28.78, 125 41.25 M125 41.25 C124.46 47.64, 117.75 51.27, 111.25 55 M111.25 55 C82.52 50.39, 48.41 56.28, 13.75 55 M13.75 55 C1.18 53.87, 1.97 47.76, 0 41.25 M0 41.25 C0.79 30.97, 0.4 24.9, 0 13.75 M0 13.75 C-3.31 7.33, 2.39 -0.99, 13.75 0" stroke="#e03131" stroke-width="1.5" fill="none" stroke-dasharray="8 9"></path></g><g transform="translate(82.12790333141095 843.7015269886368) rotate(0 18.10399627685547 10)"><text x="18.10399627685547" y="0" font-family="Virgil, Segoe UI Emoji" font-size="16px" fill="#e03131" text-anchor="middle" style="white-space: pre;" direction="ltr" dominant-baseline="text-before-edge">Deny</text></g><g stroke-linecap="round" transform="translate(449.836835687812 830.6839488636366) rotate(0 62.5 27.5)"><path d="M5.33 1.98 C5.33 1.98, 5.33 1.98, 5.33 1.98 M5.33 1.98 C5.33 1.98, 5.33 1.98, 5.33 1.98 M1.79 12.15 C3.77 5.95, 11.92 4.66, 12.28 0.08 M1.79 12.15 C5.95 9.43, 8.98 5.98, 12.28 0.08 M2.18 17.8 C5.15 16.81, 7.32 10.37, 15.96 1.95 M2.18 17.8 C6.54 13.79, 9.47 9.93, 15.96 1.95 M1.92 24.19 C9.28 14.92, 10.68 14.26, 20.95 2.31 M1.92 24.19 C6.55 15.11, 15.45 10.07, 20.95 2.31 M1.66 30.59 C6.64 22.02, 16.61 11.25, 26.59 1.91 M1.66 30.59 C6.28 24.03, 11.96 18.81, 26.59 1.91 M2.05 36.24 C9.23 24.79, 18.95 17.64, 31.58 2.27 M2.05 36.24 C8.47 27.1, 13.56 21.26, 31.58 2.27 M1.79 42.63 C9.9 29.84, 16 26.59, 37.22 1.88 M1.79 42.63 C16.24 27.37, 25.68 14.88, 37.22 1.88 M3.5 46.77 C18.14 27.22, 32.68 14.34, 42.21 2.24 M3.5 46.77 C15.16 34.79, 22.6 22.31, 42.21 2.24 M3.89 52.41 C17.14 40.68, 24.89 26.03, 47.85 1.84 M3.89 52.41 C11.71 41.39, 24.1 30.12, 47.85 1.84 M7.57 54.28 C16.89 38.1, 26.89 30.43, 52.84 2.2 M7.57 54.28 C18.64 43.11, 25.76 34.91, 52.84 2.2 M10.59 56.9 C27.91 37.51, 46.53 15.44, 57.82 2.56 M10.59 56.9 C20.33 46.69, 34.13 34.34, 57.82 2.56 M16.23 56.51 C36.02 33.82, 48.12 18.78, 63.47 2.17 M16.23 56.51 C32.3 36.26, 50.05 13.93, 63.47 2.17 M21.22 56.87 C33.41 42.64, 48.75 21.41, 68.45 2.53 M21.22 56.87 C36.48 39.63, 50.1 22.44, 68.45 2.53 M26.2 57.23 C39.41 44.44, 46.22 29.06, 74.1 2.14 M26.2 57.23 C44.82 35.36, 60.27 17.41, 74.1 2.14 M31.85 56.83 C44.31 40.75, 62.2 26.01, 79.08 2.5 M31.85 56.83 C41.83 44.9, 55.3 29.88, 79.08 2.5 M36.83 57.19 C55.83 37.22, 67 19.83, 84.07 2.86 M36.83 57.19 C53.75 37.63, 68.38 22.12, 84.07 2.86 M42.48 56.8 C52.31 41.63, 62.82 26.53, 89.71 2.46 M42.48 56.8 C54.77 43.52, 65.68 28.52, 89.71 2.46 M47.46 57.16 C54.95 47.72, 63.17 33.62, 94.7 2.82 M47.46 57.16 C66.24 36.69, 82.18 18.39, 94.7 2.82 M53.11 56.77 C67.77 40.82, 78.65 26.55, 100.34 2.43 M53.11 56.77 C63.93 42.99, 76.95 30.32, 100.34 2.43 M58.09 57.13 C77.81 36.34, 92.62 13.13, 105.33 2.79 M58.09 57.13 C73.4 42.55, 82.58 26.27, 105.33 2.79 M63.08 57.49 C82.13 37.55, 100.15 22.24, 110.97 2.39 M63.08 57.49 C74.19 44.68, 83.05 33.94, 110.97 2.39 M68.72 57.09 C89.13 36.7, 101.6 16.7, 117.27 1.24 M68.72 57.09 C89.09 38.61, 106 15.05, 117.27 1.24 M73.71 57.45 C87.63 36.39, 101.61 23.54, 120.95 3.11 M73.71 57.45 C90.42 38.26, 107.11 15.99, 120.95 3.11 M79.35 57.06 C95.23 42.15, 106.83 21.8, 123.97 5.74 M79.35 57.06 C96.49 40.3, 112.07 20.38, 123.97 5.74 M84.34 57.42 C96.36 49.44, 108.85 31.76, 125.02 10.62 M84.34 57.42 C91.7 47.52, 101.87 36.46, 125.02 10.62 M89.98 57.02 C97.6 45.17, 109.72 31.3, 124.76 17.02 M89.98 57.02 C100.58 44.9, 111.86 35.8, 124.76 17.02 M94.97 57.38 C103.39 48.75, 115.55 38.54, 124.49 23.42 M94.97 57.38 C105.9 46.51, 115.94 31.75, 124.49 23.42 M99.96 57.74 C109.94 52.75, 112.91 42.56, 124.89 29.06 M99.96 57.74 C104.59 52.64, 109.73 45.95, 124.89 29.06 M105.6 57.35 C114.59 48.2, 123.77 40.69, 124.63 35.46 M105.6 57.35 C114.66 50.22, 118.87 41.23, 124.63 35.46 M111.9 56.2 C119.46 47.49, 119.96 48, 124.37 41.86 M111.9 56.2 C114.04 51.27, 117.5 46.62, 124.37 41.86" stroke="#b2f2bb" stroke-width="0.5" fill="none"></path><path d="M13.75 0 M13.75 0 C36.93 4.63, 68.01 -2.12, 111.25 0 M111.25 0 C123.99 -1.05, 127.57 3.11, 125 13.75 M125 13.75 C128.88 24.29, 124.77 31.07, 125 41.25 M125 41.25 C125.4 50.62, 119.69 54.84, 111.25 55 M111.25 55 C90.89 59.28, 65.24 55.5, 13.75 55 M13.75 55 C1.28 57.64, -1.86 49.02, 0 41.25 M0 41.25 C-1.7 32.61, -1.64 19.98, 0 13.75 M0 13.75 C2.9 1.61, 3.91 2.3, 13.75 0" stroke="#2f9e44" stroke-width="1.5" fill="none" stroke-dasharray="8 9"></path></g><g transform="translate(493.57685643976515 848.1839488636366) rotate(0 18.759979248046875 10)"><text x="18.759979248046875" y="0" font-family="Virgil, Segoe UI Emoji" font-size="16px" fill="#2f9e44" text-anchor="middle" style="white-space: pre;" direction="ltr" dominant-baseline="text-before-edge">Allow</text></g><g transform="translate(10 535.0580610795456) rotate(0 61.03997039794922 20)"><text x="61.03997039794922" y="0" font-family="Virgil, Segoe UI Emoji" font-size="16px" fill="#1e1e1e" text-anchor="middle" style="white-space: pre;" direction="ltr" dominant-baseline="text-before-edge">Makes decision </text><text x="61.03997039794922" y="20" font-family="Virgil, Segoe UI Emoji" font-size="16px" fill="#1e1e1e" text-anchor="middle" style="white-space: pre;" direction="ltr" dominant-baseline="text-before-edge">based on votes</text></g><g stroke-linecap="round" transform="translate(60.71973696621967 779.0846058238625) rotate(0 8.715820312500057 8.715820312500057)"><path d="M0.06 2.7 C0.06 2.7, 0.06 2.7, 0.06 2.7 M0.06 2.7 C0.06 2.7, 0.06 2.7, 0.06 2.7 M0.45 8.34 C1.9 5.37, 4.19 3.29, 6.36 1.55 M0.45 8.34 C2.4 6.61, 4.27 4.15, 6.36 1.55 M0.85 13.99 C2.76 10.19, 6.6 7.3, 11.34 1.91 M0.85 13.99 C3.72 11.26, 7.45 7.19, 11.34 1.91 M2.55 18.12 C5.32 12.88, 7.78 11.96, 16.99 1.52 M2.55 18.12 C7.51 11.76, 12.7 6.27, 16.99 1.52 M7.54 18.48 C10.92 15.21, 14.58 10.35, 18.69 5.65 M7.54 18.48 C11.85 12.99, 15.55 9.64, 18.69 5.65 M13.18 18.08 C14.18 16.34, 14.74 15.76, 18.43 12.05 M13.18 18.08 C15.09 16.63, 16.51 14.18, 18.43 12.05" stroke="#1e1e1e" stroke-width="0.5" fill="none"></path><path d="M4.36 0 M4.36 0 C7.79 -0.24, 9.72 0.11, 13.07 0 M13.07 0 C14.74 -1.12, 15.99 2.16, 17.43 4.36 M17.43 4.36 C17.91 6.92, 17.83 7.69, 17.43 13.07 M17.43 13.07 C18.47 17.23, 17.79 19.37, 13.07 17.43 M13.07 17.43 C10.77 16.89, 7.76 17.9, 4.36 17.43 M4.36 17.43 C0.96 17.94, 0.49 17.71, 0 13.07 M0 13.07 C-0.64 10.52, -0.78 7.76, 0 4.36 M0 4.36 C-1.58 1.79, -0.24 -1.27, 4.36 0" stroke="#868e96" stroke-width="1.5" fill="none" stroke-dasharray="8 9"></path></g><g stroke-linecap="round" transform="translate(92.66398412531066 779.0846058238625) rotate(0 8.715820312500057 8.715820312500057)"><path d="M0.06 2.7 C0.06 2.7, 0.06 2.7, 0.06 2.7 M0.06 2.7 C0.06 2.7, 0.06 2.7, 0.06 2.7 M0.45 8.34 C2.75 6.81, 4.91 3.28, 6.36 1.55 M0.45 8.34 C2.22 5.99, 4.27 3.24, 6.36 1.55 M0.85 13.99 C4.64 8.59, 8.23 4.82, 11.34 1.91 M0.85 13.99 C3 10.23, 5.96 6.66, 11.34 1.91 M2.55 18.12 C8.08 10.61, 11.28 4.85, 16.99 1.52 M2.55 18.12 C7.2 11.73, 14.12 5.19, 16.99 1.52 M7.54 18.48 C12.37 15.52, 13.87 10.28, 18.69 5.65 M7.54 18.48 C11.12 13.72, 15.22 9.35, 18.69 5.65 M13.18 18.08 C15.36 15.38, 16.65 14.52, 18.43 12.05 M13.18 18.08 C14.37 16.82, 15.89 14.68, 18.43 12.05" stroke="#1e1e1e" stroke-width="0.5" fill="none"></path><path d="M4.36 0 M4.36 0 C6.7 0.79, 10.06 0.37, 13.07 0 M13.07 0 C17.54 -0.71, 16.37 2.43, 17.43 4.36 M17.43 4.36 C16.9 8.03, 17.83 11.26, 17.43 13.07 M17.43 13.07 C18.32 16.38, 17.08 15.73, 13.07 17.43 M13.07 17.43 C9.25 17.49, 6.25 18.24, 4.36 17.43 M4.36 17.43 C0.2 16, 0.83 14, 0 13.07 M0 13.07 C0.19 9.39, 0.24 6.97, 0 4.36 M0 4.36 C0.28 1.45, 2.92 0.16, 4.36 0" stroke="#868e96" stroke-width="1.5" fill="none" stroke-dasharray="8 9"></path></g><g stroke-linecap="round" transform="translate(124.65705940940165 779.031338778408) rotate(0 8.715820312500057 8.715820312500057)"><path d="M0.06 2.7 C0.06 2.7, 0.06 2.7, 0.06 2.7 M0.06 2.7 C0.06 2.7, 0.06 2.7, 0.06 2.7 M0.45 8.34 C1.1 6.89, 2.67 4.76, 6.36 1.55 M0.45 8.34 C2.48 5.47, 4.61 3.36, 6.36 1.55 M0.85 13.99 C2.24 9.66, 5.04 8.86, 11.34 1.91 M0.85 13.99 C4.64 10.19, 8.33 5.2, 11.34 1.91 M2.55 18.12 C9.03 11.32, 12.83 6.43, 16.99 1.52 M2.55 18.12 C7.14 12.62, 12.17 6.72, 16.99 1.52 M7.54 18.48 C9.87 13.87, 16.1 9.65, 18.69 5.65 M7.54 18.48 C10.82 15.41, 12.25 12.61, 18.69 5.65 M13.18 18.08 C15.26 16.56, 16.24 15.6, 18.43 12.05 M13.18 18.08 C14.81 16.32, 15.73 14.63, 18.43 12.05" stroke="#1e1e1e" stroke-width="0.5" fill="none"></path><path d="M4.36 0 M4.36 0 C7.96 0.1, 11.28 -0.82, 13.07 0 M13.07 0 C16.87 1.59, 19.01 -0.43, 17.43 4.36 M17.43 4.36 C16.8 6.33, 17.71 8.7, 17.43 13.07 M17.43 13.07 C18.82 16.4, 14.28 17.91, 13.07 17.43 M13.07 17.43 C11.04 17.46, 9.41 17.54, 4.36 17.43 M4.36 17.43 C3.4 18.24, 0.71 14.06, 0 13.07 M0 13.07 C0.74 10.56, 0.49 9.13, 0 4.36 M0 4.36 C0.43 0.55, 1.33 -0.84, 4.36 0" stroke="#868e96" stroke-width="1.5" fill="none" stroke-dasharray="8 9"></path></g><g transform="translate(16.47479733553905 747.7711292613623) rotate(0 82.27994537353516 10)"><text x="0" y="0" font-family="Virgil, Segoe UI Emoji" font-size="16px" fill="#1e1e1e" text-anchor="start" style="white-space: pre;" direction="ltr" dominant-baseline="text-before-edge">all policies abstained</text></g><g stroke-linecap="round" transform="translate(259.9323883056644 784.7028586647712) rotate(0 8.715820312500057 8.715820312500057)"><path d="M0.06 2.7 C0.06 2.7, 0.06 2.7, 0.06 2.7 M0.06 2.7 C0.06 2.7, 0.06 2.7, 0.06 2.7 M0.45 8.34 C2.15 5.82, 4.3 2.69, 6.36 1.55 M0.45 8.34 C2.26 6.61, 3.79 4.14, 6.36 1.55 M0.85 13.99 C4.42 10.93, 6.08 7.84, 11.34 1.91 M0.85 13.99 C2.66 11.53, 5.85 7.75, 11.34 1.91 M2.55 18.12 C5.99 12.02, 11.67 10.54, 16.99 1.52 M2.55 18.12 C8.91 11.98, 13.6 4.74, 16.99 1.52 M7.54 18.48 C11.38 12.94, 16.64 8.95, 18.69 5.65 M7.54 18.48 C11.15 15.52, 14.26 11.06, 18.69 5.65 M13.18 18.08 C14.08 16.87, 15.62 15.96, 18.43 12.05 M13.18 18.08 C14.59 16.76, 15.71 14.49, 18.43 12.05" stroke="#1e1e1e" stroke-width="0.5" fill="none"></path><path d="M4.36 0 M4.36 0 C7.36 -0.31, 11.07 -0.12, 13.07 0 M13.07 0 C15.11 1.26, 17.18 1.6, 17.43 4.36 M17.43 4.36 C18.24 8.08, 17.96 10.05, 17.43 13.07 M17.43 13.07 C19.09 14.25, 16 18.39, 13.07 17.43 M13.07 17.43 C9.66 17.54, 8.77 18.18, 4.36 17.43 M4.36 17.43 C-0.43 18.86, 0.21 17.27, 0 13.07 M0 13.07 C0.04 11.25, -0.45 7.99, 0 4.36 M0 4.36 C0.34 3.13, -0.48 -1.22, 4.36 0" stroke="#868e96" stroke-width="1.5" fill="none" stroke-dasharray="8 9"></path></g><g stroke-linecap="round" transform="translate(323.8697107488463 784.6495916193167) rotate(0 8.715820312500057 8.715820312500057)"><path d="M0.06 2.7 C0.06 2.7, 0.06 2.7, 0.06 2.7 M0.06 2.7 C0.06 2.7, 0.06 2.7, 0.06 2.7 M0.45 8.34 C2.34 5.58, 4.52 4.18, 6.36 1.55 M0.45 8.34 C2.6 5.98, 5.44 3.27, 6.36 1.55 M0.85 13.99 C3.01 10.04, 6.38 5.32, 11.34 1.91 M0.85 13.99 C4.34 10.6, 8.31 5.43, 11.34 1.91 M2.55 18.12 C7.27 15.31, 9.42 12.49, 16.99 1.52 M2.55 18.12 C7.5 12.65, 12.29 7.64, 16.99 1.52 M7.54 18.48 C9.7 17, 11.16 13.74, 18.69 5.65 M7.54 18.48 C10.96 13.36, 16.49 8.71, 18.69 5.65 M13.18 18.08 C14.68 16.2, 17.27 14.07, 18.43 12.05 M13.18 18.08 C15.5 15.65, 17.02 13.37, 18.43 12.05" stroke="#1e1e1e" stroke-width="0.5" fill="none"></path><path d="M4.36 0 M4.36 0 C6.22 0.57, 8.72 0.08, 13.07 0 M13.07 0 C16.61 0.01, 16.73 3.3, 17.43 4.36 M17.43 4.36 C18.21 7.05, 17.49 11.67, 17.43 13.07 M17.43 13.07 C17.32 14.69, 16.88 15.49, 13.07 17.43 M13.07 17.43 C9.57 18.12, 7.79 18.06, 4.36 17.43 M4.36 17.43 C1.32 19.34, -0.32 16.27, 0 13.07 M0 13.07 C0.18 10.45, -0.8 5.84, 0 4.36 M0 4.36 C0.46 3.04, 0.26 -1.06, 4.36 0" stroke="#868e96" stroke-width="1.5" fill="none" stroke-dasharray="8 9"></path></g><g stroke-linecap="round" transform="translate(293.0713265158914 785.2369495738621) rotate(0 8.715820312500057 8.715820312500057)"><path d="M0.06 2.7 C0.06 2.7, 0.06 2.7, 0.06 2.7 M0.06 2.7 C0.06 2.7, 0.06 2.7, 0.06 2.7 M0.45 8.34 C2.88 5.68, 4.95 3.73, 6.36 1.55 M0.45 8.34 C2.18 5.61, 4.69 3.28, 6.36 1.55 M0.85 13.99 C5.69 8.07, 9.03 5.73, 11.34 1.91 M0.85 13.99 C3.21 11.65, 6.55 8.12, 11.34 1.91 M2.55 18.12 C6.83 14.78, 10 11.3, 16.99 1.52 M2.55 18.12 C6.3 15.59, 7.78 11.44, 16.99 1.52 M7.54 18.48 C11.95 13.39, 14.75 7.51, 18.69 5.65 M7.54 18.48 C10.93 13.42, 15 9.87, 18.69 5.65 M13.18 18.08 C15.6 15.98, 17.39 14.15, 18.43 12.05 M13.18 18.08 C14.39 16.93, 15.51 15.46, 18.43 12.05" stroke="#ffc9c9" stroke-width="0.5" fill="none"></path><path d="M4.36 0 M4.36 0 C8.07 0.26, 10.63 -0.4, 13.07 0 M13.07 0 C14.51 1.2, 16.96 2.89, 17.43 4.36 M17.43 4.36 C16.79 6.52, 18.06 8.61, 17.43 13.07 M17.43 13.07 C17.53 17.59, 14.04 16.63, 13.07 17.43 M13.07 17.43 C9.71 17.68, 7.62 17.65, 4.36 17.43 M4.36 17.43 C1.01 15.56, -0.57 17.68, 0 13.07 M0 13.07 C-0.8 9.58, -0.28 7.15, 0 4.36 M0 4.36 C0.35 0.56, 1.65 -0.2, 4.36 0" stroke="#e03131" stroke-width="1.5" fill="none" stroke-dasharray="8 9"></path></g><g transform="translate(222.19290438565406 749.912819602272) rotate(0 78.4239654541015 10)"><text x="0" y="0" font-family="Virgil, Segoe UI Emoji" font-size="16px" fill="#1e1e1e" text-anchor="start" style="white-space: pre;" direction="ltr" dominant-baseline="text-before-edge">at least one denied</text></g><g stroke-linecap="round" transform="translate(238.17579165372103 830.0935724431826) rotate(0 62.5 27.5)"><path d="M5.33 1.98 C5.33 1.98, 5.33 1.98, 5.33 1.98 M5.33 1.98 C5.33 1.98, 5.33 1.98, 5.33 1.98 M1.79 12.15 C7.27 7.24, 7.24 6.25, 12.28 0.08 M1.79 12.15 C6.04 8.71, 9.59 4.51, 12.28 0.08 M2.18 17.8 C6.02 12.2, 11.18 13.59, 15.96 1.95 M2.18 17.8 C7.3 13.29, 6.94 9.71, 15.96 1.95 M1.92 24.19 C8.31 22.9, 6.36 14.23, 20.95 2.31 M1.92 24.19 C9.83 18.94, 14.51 8.5, 20.95 2.31 M1.66 30.59 C14.99 20.7, 18.05 10.98, 26.59 1.91 M1.66 30.59 C7.79 21.63, 16.33 15.52, 26.59 1.91 M2.05 36.24 C8.55 26.43, 14.46 19.45, 31.58 2.27 M2.05 36.24 C12.96 22.34, 23.38 13.32, 31.58 2.27 M1.79 42.63 C12.11 29.76, 24.04 20.58, 37.22 1.88 M1.79 42.63 C10.28 33.95, 15.17 25.64, 37.22 1.88 M3.5 46.77 C18.01 33.43, 33.85 9.92, 42.21 2.24 M3.5 46.77 C13.03 36.59, 21.83 27.52, 42.21 2.24 M3.89 52.41 C12.34 44.05, 24.09 31.77, 47.85 1.84 M3.89 52.41 C13.4 42.7, 21.81 29.84, 47.85 1.84 M7.57 54.28 C25.98 40.94, 37.53 21.75, 52.84 2.2 M7.57 54.28 C15.11 43.19, 27.41 32.31, 52.84 2.2 M10.59 56.9 C22.37 43.19, 33.39 36.3, 57.82 2.56 M10.59 56.9 C23.15 43.28, 33.96 29.11, 57.82 2.56 M16.23 56.51 C30.46 42.28, 48.58 18.82, 63.47 2.17 M16.23 56.51 C32.59 38.1, 48.74 17.05, 63.47 2.17 M21.22 56.87 C39.52 33.66, 58.49 19.25, 68.45 2.53 M21.22 56.87 C33.56 42.08, 45.96 27.7, 68.45 2.53 M26.2 57.23 C37.23 46.44, 46.41 34.4, 74.1 2.14 M26.2 57.23 C42.52 37.64, 59.72 16.93, 74.1 2.14 M31.85 56.83 C49.84 42.47, 56.89 27.96, 79.08 2.5 M31.85 56.83 C42.56 43.98, 54.19 33.56, 79.08 2.5 M36.83 57.19 C51.04 47.15, 61.29 32.24, 84.07 2.86 M36.83 57.19 C49.28 40.55, 64.38 28.24, 84.07 2.86 M42.48 56.8 C55.07 40.01, 68.43 29.88, 89.71 2.46 M42.48 56.8 C60.93 34.38, 78.63 14.46, 89.71 2.46 M47.46 57.16 C64.33 34.46, 80.43 20.81, 94.7 2.82 M47.46 57.16 C64.29 41.24, 77.51 21.72, 94.7 2.82 M53.11 56.77 C70.87 34.69, 88.49 17.79, 100.34 2.43 M53.11 56.77 C66.39 37.52, 82.46 21.92, 100.34 2.43 M58.09 57.13 C71.48 41.11, 85.25 28.66, 105.33 2.79 M58.09 57.13 C74.91 39.94, 91.3 19.64, 105.33 2.79 M63.08 57.49 C73.98 39.68, 84.51 30.07, 110.97 2.39 M63.08 57.49 C73.65 44.94, 88.25 27.36, 110.97 2.39 M68.72 57.09 C83.82 40.55, 97.42 21.79, 117.27 1.24 M68.72 57.09 C83.56 40.77, 100.29 23.37, 117.27 1.24 M73.71 57.45 C91.24 40.49, 110.22 19.16, 120.95 3.11 M73.71 57.45 C87.49 42.61, 104.61 25.68, 120.95 3.11 M79.35 57.06 C93.6 44.17, 100.78 26.2, 123.97 5.74 M79.35 57.06 C89.15 46.14, 98.63 33.96, 123.97 5.74 M84.34 57.42 C94.81 37.29, 116.61 21.63, 125.02 10.62 M84.34 57.42 C95.51 44.99, 105.24 32.3, 125.02 10.62 M89.98 57.02 C98.07 46.31, 105.74 35.88, 124.76 17.02 M89.98 57.02 C98.66 45.67, 108.77 37.88, 124.76 17.02 M94.97 57.38 C99.52 43.94, 109.48 41.21, 124.49 23.42 M94.97 57.38 C104.36 47.72, 108.26 40.14, 124.49 23.42 M99.96 57.74 C109.05 50.08, 109.34 41.48, 124.89 29.06 M99.96 57.74 C109.93 46.92, 119.29 37.86, 124.89 29.06 M105.6 57.35 C106.96 56.53, 113.64 46.97, 124.63 35.46 M105.6 57.35 C109.41 54.39, 114.25 49.02, 124.63 35.46 M111.9 56.2 C111.57 56.36, 115.24 46.77, 124.37 41.86 M111.9 56.2 C114.26 52.75, 118.13 46.75, 124.37 41.86" stroke="#ffc9c9" stroke-width="0.5" fill="none"></path><path d="M13.75 0 M13.75 0 C33.76 -1.04, 54.99 2.08, 111.25 0 M111.25 0 C117.67 -3.15, 128.8 2.08, 125 13.75 M125 13.75 C123.89 27.34, 124.9 32.23, 125 41.25 M125 41.25 C122.23 51.14, 121.93 57.85, 111.25 55 M111.25 55 C73.15 51.11, 37.38 53.62, 13.75 55 M13.75 55 C4.06 56.14, 1.36 49.64, 0 41.25 M0 41.25 C3.17 33.73, -3.31 21.5, 0 13.75 M0 13.75 C-1.29 7.2, 4.43 -1.62, 13.75 0" stroke="#e03131" stroke-width="1.5" fill="none" stroke-dasharray="8 9"></path></g><g transform="translate(282.57179537686557 847.5935724431821) rotate(0 18.10399627685547 10)"><text x="18.10399627685547" y="0" font-family="Virgil, Segoe UI Emoji" font-size="16px" fill="#e03131" text-anchor="middle" style="white-space: pre;" direction="ltr" dominant-baseline="text-before-edge">Deny</text></g><g stroke-linecap="round" transform="translate(462.37052709406066 785.7689098011352) rotate(0 8.715820312500114 8.715820312500057)"><path d="M0.06 2.7 C0.06 2.7, 0.06 2.7, 0.06 2.7 M0.06 2.7 C0.06 2.7, 0.06 2.7, 0.06 2.7 M0.45 8.34 C1.51 6.57, 3.96 4.55, 6.36 1.55 M0.45 8.34 C2.26 5.97, 4.25 3.2, 6.36 1.55 M0.85 13.99 C3.39 11.74, 7.04 8.05, 11.34 1.91 M0.85 13.99 C5.27 8.9, 8.2 5.44, 11.34 1.91 M2.55 18.12 C5.19 14.14, 8.52 10.95, 16.99 1.52 M2.55 18.12 C7.19 13.27, 9.04 9.34, 16.99 1.52 M7.54 18.48 C11.89 15.13, 17.4 9.87, 18.69 5.65 M7.54 18.48 C9.82 14.91, 13.61 10.65, 18.69 5.65 M13.18 18.08 C13.74 17.21, 16.3 15.69, 18.43 12.05 M13.18 18.08 C15.21 16.17, 17 13.89, 18.43 12.05" stroke="#1e1e1e" stroke-width="0.5" fill="none"></path><path d="M4.36 0 M4.36 0 C8.03 0.38, 11.18 -0.35, 13.07 0 M13.07 0 C15.57 -0.23, 17.03 2.09, 17.43 4.36 M17.43 4.36 C17.33 5.97, 17.87 8.06, 17.43 13.07 M17.43 13.07 C17.03 17.24, 16.7 19.34, 13.07 17.43 M13.07 17.43 C10.69 18.17, 6.98 17.1, 4.36 17.43 M4.36 17.43 C2.91 18.53, 0.33 15.49, 0 13.07 M0 13.07 C-0.6 10.88, -0.74 8.69, 0 4.36 M0 4.36 C-0.54 2.14, 2.43 -0.79, 4.36 0" stroke="#868e96" stroke-width="1.5" fill="none" stroke-dasharray="8 9"></path></g><g stroke-linecap="round" transform="translate(526.3078495372426 785.7156427556807) rotate(0 8.715820312500114 8.715820312500057)"><path d="M0.06 2.7 C0.06 2.7, 0.06 2.7, 0.06 2.7 M0.06 2.7 C0.06 2.7, 0.06 2.7, 0.06 2.7 M0.45 8.34 C3.4 5.3, 5.46 2.64, 6.36 1.55 M0.45 8.34 C2.27 5.52, 4.82 3.51, 6.36 1.55 M0.85 13.99 C4.8 10.7, 10.08 3.24, 11.34 1.91 M0.85 13.99 C3.92 10.29, 7.81 5.51, 11.34 1.91 M2.55 18.12 C5.57 14.39, 9.13 8.07, 16.99 1.52 M2.55 18.12 C5.88 12.76, 11.8 9.18, 16.99 1.52 M7.54 18.48 C12.31 15.73, 13.71 10.5, 18.69 5.65 M7.54 18.48 C11.88 12.84, 15.82 9.04, 18.69 5.65 M13.18 18.08 C15.94 16.21, 17.97 13.94, 18.43 12.05 M13.18 18.08 C14.6 16.64, 16.39 14.32, 18.43 12.05" stroke="#1e1e1e" stroke-width="0.5" fill="none"></path><path d="M4.36 0 M4.36 0 C8.12 -0.31, 11.15 -0.15, 13.07 0 M13.07 0 C15.58 0.63, 16.1 2.81, 17.43 4.36 M17.43 4.36 C17.8 6.47, 17.24 9.87, 17.43 13.07 M17.43 13.07 C18.15 17.89, 17.03 19.07, 13.07 17.43 M13.07 17.43 C11.13 17.24, 9.73 17.99, 4.36 17.43 M4.36 17.43 C1.78 16.95, -1.47 15.28, 0 13.07 M0 13.07 C-0.71 9.32, -0.17 6.73, 0 4.36 M0 4.36 C0.98 0.67, 1.91 0.17, 4.36 0" stroke="#868e96" stroke-width="1.5" fill="none" stroke-dasharray="8 9"></path></g><g stroke-linecap="round" transform="translate(494.1927039406512 785.8583984374987) rotate(0 8.715820312500114 8.715820312500057)"><path d="M0.06 2.7 C0.06 2.7, 0.06 2.7, 0.06 2.7 M0.06 2.7 C0.06 2.7, 0.06 2.7, 0.06 2.7 M0.45 8.34 C2.87 6.54, 4.5 4.26, 6.36 1.55 M0.45 8.34 C2.28 6.29, 3.38 4.67, 6.36 1.55 M0.85 13.99 C4.2 8.79, 6.62 5.14, 11.34 1.91 M0.85 13.99 C5.01 9.16, 9.38 5.8, 11.34 1.91 M2.55 18.12 C6.83 13.65, 12.93 6.28, 16.99 1.52 M2.55 18.12 C6.37 14.23, 10.07 10.24, 16.99 1.52 M7.54 18.48 C13.36 13.12, 17.46 10.29, 18.69 5.65 M7.54 18.48 C11.72 13.78, 16.25 8.49, 18.69 5.65 M13.18 18.08 C14.97 15.77, 16.63 15.03, 18.43 12.05 M13.18 18.08 C15.02 16.35, 16.26 13.83, 18.43 12.05" stroke="#b2f2bb" stroke-width="0.5" fill="none"></path><path d="M4.36 0 M4.36 0 C7.03 -0.01, 9.61 -0.71, 13.07 0 M13.07 0 C15.55 -0.39, 15.79 0.91, 17.43 4.36 M17.43 4.36 C17.6 6.27, 17.99 9.13, 17.43 13.07 M17.43 13.07 C19.12 15.01, 17.82 16.68, 13.07 17.43 M13.07 17.43 C9.88 17.55, 6.82 16.8, 4.36 17.43 M4.36 17.43 C3.16 19.25, 0.38 15.64, 0 13.07 M0 13.07 C-0.36 10.26, -0.34 8.71, 0 4.36 M0 4.36 C-0.07 -0.43, 3.04 -1.52, 4.36 0" stroke="#2f9e44" stroke-width="1.5" fill="none" stroke-dasharray="8 9"></path></g><g transform="translate(420.1990515969019 734.7366832386366) rotate(0 82.85595703125 20)"><text x="82.85595703125" y="0" font-family="Virgil, Segoe UI Emoji" font-size="16px" fill="#1e1e1e" text-anchor="middle" style="white-space: pre;" direction="ltr" dominant-baseline="text-before-edge">at least one allowed</text><text x="82.85595703125" y="20" font-family="Virgil, Segoe UI Emoji" font-size="16px" fill="#1e1e1e" text-anchor="middle" style="white-space: pre;" direction="ltr" dominant-baseline="text-before-edge">none denied</text></g><g stroke-linecap="round" transform="translate(278.46165813099276 646.6028053977276) rotate(0 18.332741477272748 18.332741477272748)"><path d="M10.75 1.73 C14.05 0.07, 19.7 -1.38, 23.62 -0.09 C27.54 1.2, 32.26 6.1, 34.28 9.47 C36.3 12.84, 36.21 16.48, 35.72 20.16 C35.23 23.83, 34.26 28.89, 31.33 31.5 C28.4 34.11, 22.33 35.57, 18.14 35.82 C13.95 36.07, 9.09 35.33, 6.2 32.98 C3.31 30.63, 1.41 25.7, 0.77 21.72 C0.13 17.74, -0.1 12.81, 2.36 9.12 C4.83 5.42, 12.81 0.9, 15.57 -0.47 C18.34 -1.84, 19.01 0.35, 18.96 0.91 M27.49 1.8 C31.13 3.59, 35.01 8.61, 36.22 12.33 C37.42 16.04, 35.79 20.47, 34.71 24.1 C33.64 27.73, 32.72 32.23, 29.76 34.1 C26.81 35.98, 21.34 35.68, 17 35.35 C12.66 35.02, 6.44 34.57, 3.73 32.13 C1.02 29.68, 0.98 24.87, 0.74 20.69 C0.5 16.51, 0.34 10.59, 2.31 7.06 C4.28 3.54, 8.66 0.53, 12.56 -0.45 C16.46 -1.44, 23.47 0.51, 25.72 1.13 C27.97 1.75, 26.19 2.62, 26.05 3.26" stroke="#1e1e1e" stroke-width="1" fill="none"></path></g><g stroke-linecap="round"><g transform="translate(134.13899209211888 476.9152770136676) rotate(0 71.06906749394881 83.206640378325)"><path d="M0.63 0.93 C5.04 17.08, 2.79 69.94, 26.46 97.28 C50.12 124.62, 123.26 153.6, 142.63 164.98 M-0.5 0.38 C3.72 16.15, 1.54 67.93, 25.29 95.54 C49.04 123.15, 122.36 154.18, 142 166.03" stroke="#1e1e1e" stroke-width="1" fill="none"></path></g><g transform="translate(134.13899209211888 476.9152770136676) rotate(0 71.06906749394881 83.206640378325)"><path d="M113.81 161.48 C122.4 163.57, 129.26 164.85, 142.11 165.84 M112.52 162.21 C118.44 162.61, 125.8 164.54, 141.73 165.77" stroke="#1e1e1e" stroke-width="1" fill="none"></path></g><g transform="translate(134.13899209211888 476.9152770136676) rotate(0 71.06906749394881 83.206640378325)"><path d="M123.25 143.26 C129.08 150.87, 133.1 157.6, 142.11 165.84 M121.97 144 C125.65 148.65, 130.8 154.85, 141.73 165.77" stroke="#1e1e1e" stroke-width="1" fill="none"></path></g></g><mask></mask><g stroke-linecap="round"><g transform="translate(135.72817091508352 211.27787642045485) rotate(0 -0.4773573418596584 37.17929086512717)"><path d="M-0.27 1.15 C-0.49 13.33, -1.78 60.29, -1.87 72.32 M1.78 0.7 C1.47 13.13, -2.28 61.89, -2.74 73.65" stroke="#1e1e1e" stroke-width="1" fill="none"></path></g><g transform="translate(135.72817091508352 211.27787642045485) rotate(0 -0.4773573418596584 37.17929086512717)"><path d="M-9.37 45.14 C-9.98 54.17, -6.15 60.16, -1.06 74.49 M-10.67 45.58 C-7.54 54.75, -4.98 66.67, -2.38 74.09" stroke="#1e1e1e" stroke-width="1" fill="none"></path></g><g transform="translate(135.72817091508352 211.27787642045485) rotate(0 -0.4773573418596584 37.17929086512717)"><path d="M11.11 46.38 C5.35 55.04, 4 60.72, -1.06 74.49 M9.82 46.81 C5.31 55.36, 0.22 66.83, -2.38 74.09" stroke="#1e1e1e" stroke-width="1" fill="none"></path></g></g><mask></mask><g stroke-linecap="round"><g transform="translate(369.67703455144715 482.02095170454584) rotate(0 -105.34321237402878 -14.00535901859405)"><path d="M-0.72 -0.45 C-35.71 -5.2, -174.84 -22.79, -209.97 -27.56" stroke="#1e1e1e" stroke-width="1.5" fill="none" stroke-dasharray="8 9"></path></g><g transform="translate(369.67703455144715 482.02095170454584) rotate(0 -105.34321237402878 -14.00535901859405)"><path d="M-181.44 -33.15 C-188.17 -33.84, -199.52 -30.46, -210.63 -28.73" stroke="#1e1e1e" stroke-width="1.5" fill="none"></path></g><g transform="translate(369.67703455144715 482.02095170454584) rotate(0 -105.34321237402878 -14.00535901859405)"><path d="M-184.1 -12.8 C-190.19 -19.6, -200.75 -22.33, -210.63 -28.73" stroke="#1e1e1e" stroke-width="1.5" fill="none"></path></g></g><mask></mask><g stroke-linecap="round"><g transform="translate(321.0264663696289 661.9881036931821) rotate(0 93.73474089101006 30.612734646850583)"><path d="M0.21 0.51 C22.42 3.99, 100.68 11.94, 132.08 21.97 C163.48 32, 179.24 54.07, 188.6 60.7 M-1.13 -0.26 C21.1 3.84, 100.17 12.67, 131.6 22.96 C163.04 33.25, 178.09 54.83, 187.49 61.49" stroke="#1e1e1e" stroke-width="1" fill="none"></path></g><g transform="translate(321.0264663696289 661.9881036931821) rotate(0 93.73474089101006 30.612734646850583)"><path d="M160.57 51.65 C163.71 51.3, 169.39 53.03, 187.58 60.04 M160.23 51.02 C166.1 53.87, 173.04 56.47, 187.12 62.37" stroke="#1e1e1e" stroke-width="1" fill="none"></path></g><g transform="translate(321.0264663696289 661.9881036931821) rotate(0 93.73474089101006 30.612734646850583)"><path d="M174.35 36.45 C174.84 39.2, 177.73 44.01, 187.58 60.04 M174.01 35.81 C176.54 42.32, 180.13 48.6, 187.12 62.37" stroke="#1e1e1e" stroke-width="1" fill="none"></path></g></g><mask></mask><g stroke-linecap="round"><g transform="translate(267.6882859764589 664.7349076704548) rotate(0 -95.92337585542481 33.36912657918833)"><path d="M-0.21 0.04 C-22.22 3.73, -100.49 12.05, -132.24 23.18 C-163.99 34.31, -180.94 59.45, -190.69 66.81 M-1.78 -0.99 C-23.42 3.45, -98.44 13.35, -130.08 24.8 C-161.72 36.25, -181.52 60.47, -191.64 67.73" stroke="#1e1e1e" stroke-width="1" fill="none"></path></g><g transform="translate(267.6882859764589 664.7349076704548) rotate(0 -95.92337585542481 33.36912657918833)"><path d="M-177.12 39.68 C-180.83 48.38, -186.5 55.74, -192.01 66.96 M-176.7 41.24 C-180.5 48.76, -184.19 54.86, -191.7 68.13" stroke="#1e1e1e" stroke-width="1" fill="none"></path></g><g transform="translate(267.6882859764589 664.7349076704548) rotate(0 -95.92337585542481 33.36912657918833)"><path d="M-163.6 55.12 C-171.31 59.38, -180.85 62.32, -192.01 66.96 M-163.19 56.68 C-170.64 59.97, -178.02 61.86, -191.7 68.13" stroke="#1e1e1e" stroke-width="1" fill="none"></path></g></g><mask></mask><g stroke-linecap="round"><g transform="translate(298.3568996082654 696.0568181818186) rotate(0 -1.0275881269665206 22.0027258002072)"><path d="M-0.24 -0.39 C-0.26 7.17, -0.54 36.78, -0.74 44.38 M-1.82 -1.64 C-1.85 6.16, -1.07 37.59, -1.09 45.64" stroke="#1e1e1e" stroke-width="1" fill="none"></path></g><g transform="translate(298.3568996082654 696.0568181818186) rotate(0 -1.0275881269665206 22.0027258002072)"><path d="M-9.68 26.52 C-8.09 30.65, -4.75 34.63, -0.11 44 M-10 24.78 C-6.39 30.12, -4.97 34.25, -1.77 46.06" stroke="#1e1e1e" stroke-width="1" fill="none"></path></g><g transform="translate(298.3568996082654 696.0568181818186) rotate(0 -1.0275881269665206 22.0027258002072)"><path d="M5.69 26.33 C3.44 30.48, 2.95 34.5, -0.11 44 M5.37 24.59 C5.61 29.98, 3.65 34.15, -1.77 46.06" stroke="#1e1e1e" stroke-width="1" fill="none"></path></g></g><mask></mask></svg>